<?xml version="1.0" encoding="UTF-8"?>
<svg id="a" data-name="Livello 1" xmlns="http://www.w3.org/2000/svg" viewBox="0 0 1024 1024">
  <g>
    <path d="M976.94,310.08v35.53c0,1.96-.99,3.68-2.49,4.7-.02.02-.03.02-.04.02-.9.6-1.97.95-3.14.95h-35.51c-3.13,0-5.67,2.54-5.67,5.67v58.78c0,3.14-2.55,5.67-5.67,5.67h-35.52c-3.13,0-5.68,2.55-5.68,5.67v35.53c0,3.12-2.53,5.67-5.67,5.67h-35.51c-3.14,0-5.67-2.55-5.67-5.67v-107.02H187.64v106.98c0,3.15-2.56,5.71-5.71,5.71h-35.45c-3.15,0-5.71-2.56-5.71-5.71v-35.46c0-3.15-2.55-5.7-5.7-5.7h-35.45c-3.15,0-5.7-2.55-5.7-5.7v-58.72c0-3.15-2.55-5.7-5.7-5.7h-35.46c-1.07,0-2.05-.29-2.9-.79-1.68-.99-2.81-2.82-2.81-4.91v-35.46c0-2.38,1.47-4.43,3.55-5.28.67-.28,1.39-.43,2.16-.43h35.45c3.15,0,5.71-2.56,5.71-5.71v-58.71c0-3.15,2.55-5.7,5.7-5.7h35.45c3.15,0,5.7-2.55,5.7-5.7v-35.45c0-3.16,2.56-5.71,5.71-5.71h35.45c3.15,0,5.71,2.56,5.71,5.71v98.44h648.73v-98.48c0-3.13,2.54-5.67,5.68-5.67h35.5c3.13,0,5.67,2.53,5.67,5.67v35.52c0,3.13,2.54,5.67,5.67,5.67h35.53c3.13,0,5.67,2.54,5.67,5.67v58.78c0,3.14,2.54,5.67,5.67,5.67h35.51c.82,0,1.59.18,2.3.49,1.99.88,3.37,2.88,3.37,5.18Z" fill="currentColor" stroke-width="0"/>
    <path d="M158.54,310.44v35.45c0,2.09,1.12,3.92,2.81,4.91-1.7-.64-2.9-2.28-2.9-4.2v-37.05c0-2.19,1.57-4.01,3.64-4.4-2.08.84-3.55,2.89-3.55,5.28Z" fill="currentColor" stroke-width="0"/>
    <path d="M868.27,309.55v37.05c0,1.77-1.02,3.3-2.5,4.02,1.51-1.02,2.5-2.75,2.5-4.7v-35.52c0-2.31-1.39-4.31-3.38-5.19,1.95.48,3.39,2.25,3.39,4.34Z" fill="currentColor" stroke-width="0"/>
    <g>
      <rect x="480.46" y="652.58" width="66.55" height="100" fill="currentColor" stroke-width="0"/>
      <rect x="357.47" y="581.58" width="312.55" height="85.53" rx="34.63" ry="34.63" fill="currentColor" stroke-width="0"/>
    </g>
  </g>
  <rect x="211.51" y="328.51" width="83" height="424" fill="currentColor" stroke-width="0"/>
  <rect x="734.51" y="350.51" width="83" height="424" fill="currentColor" stroke-width="0"/>
  <rect x="52.51" y="752.51" width="924" height="85" rx="25.36" ry="25.36" fill="currentColor" stroke-width="0"/>
</svg>