<?xml version="1.0" encoding="UTF-8"?>
<svg id="a" data-name="Livello 1" xmlns="http://www.w3.org/2000/svg" viewBox="0 0 1024 1024">
  <path d="M505.52,332.24s-.01.05-.01.08l-.61-.08h.62Z" fill="currentColor" stroke-width="0"/>
  <path d="M505.52,332.24s-.01.05-.01.08l-.61-.08h.62Z" fill="currentColor" stroke-width="0"/>
  <path d="M505.52,332.24s-.01.05-.01.08l-.61-.08h.62Z" fill="currentColor" stroke-width="0"/>
  <g>
    <path d="M983.58,561.21c-7.74-6.67-19.42-5.81-26.09,1.92l-59.8,69.31c-2,2.33-5.5,2.59-7.84.61l-289.58-246.56c-18.95-16.14-41.09-26.38-64.1-30.7-5.84-2.31-14.32-7.5-17.47-18.52v-74.45c0-3.76-2.71-7.12-6.43-7.59-4.52-.58-8.37,2.93-8.37,7.34v74.7c-2.96,10.38-10.65,15.57-16.42,18.08-23.41,3.98-46.04,14.06-65.44,30.24l-291.73,243.38c-2.35,1.96-5.84,1.65-7.81-.67l-55.29-65.05c-6.61-7.79-18.29-8.74-26.07-2.12-7.78,6.62-8.73,18.29-2.12,26.07l151.4,178.14c3.66,4.3,8.87,6.52,14.11,6.52,4.24,0,8.5-1.45,11.98-4.41,7.78-6.61,8.73-18.29,2.11-26.07l-43.36-51.03c-2-2.36-1.71-5.9.67-7.88l291.16-242.9c25.49-21.27,62.34-21.08,87.62.45l289.17,246.2c2.36,2.01,2.63,5.54.61,7.89l-44.88,52.01c-6.67,7.74-5.81,19.42,1.92,26.09,3.49,3.01,7.79,4.49,12.07,4.49,5.2,0,10.36-2.17,14.01-6.41l157.88-182.98c6.67-7.74,5.81-19.42-1.92-26.09ZM505.51,332.32l-.61-.08h.62s-.01.05-.01.08Z" fill="currentColor" stroke-width="0"/>
    <path d="M813.61,786.69c-6.83,0-13.44-2.46-18.61-6.92-5.76-4.97-9.25-11.89-9.81-19.49-.56-7.59,1.87-14.95,6.84-20.71l41.97-48.64-285.79-243.32c-21.56-18.37-52.99-18.53-74.73-.38l-287.73,240.03,40.47,47.62c4.93,5.8,7.31,13.17,6.69,20.76-.61,7.59-4.15,14.49-9.95,19.41-5.13,4.37-11.69,6.79-18.45,6.79-8.37,0-16.29-3.66-21.72-10.04L31.41,593.67c-10.17-11.97-8.7-29.99,3.26-40.17,5.8-4.94,13.18-7.31,20.78-6.69,7.59.62,14.48,4.16,19.4,9.96l52.44,61.7,288.36-240.56c19.86-16.55,43.64-27.66,68.85-32.19,4.68-2.28,7.84-5.64,9.41-10.01v-73.15c0-5,2.15-9.76,5.9-13.06,3.75-3.3,8.76-4.83,13.73-4.2,8.64,1.08,15.17,8.61,15.17,17.51v72.9c1.69,4.68,5.16,8.19,10.35,10.44,24.87,4.86,48.26,16.16,67.7,32.72l286.23,243.71,56.93-65.98c10.26-11.9,28.29-13.23,40.2-2.96h0c11.9,10.26,13.23,28.3,2.96,40.2l-157.88,182.98c-5.41,6.28-13.28,9.88-21.58,9.88ZM510.63,413.73c17.98,0,35.95,6.23,50.56,18.67l289.17,246.2c3.18,2.71,5.11,6.5,5.43,10.66.32,4.16-1,8.2-3.73,11.37l-44.88,52.01c-3.06,3.55-2.67,8.93.88,11.99,1.54,1.33,3.51,2.06,5.54,2.06,2.48,0,4.82-1.07,6.43-2.94l157.89-182.98c3.06-3.55,2.67-8.93-.88-11.99h0c-3.55-3.06-8.93-2.67-11.99.88l-59.8,69.31c-5.54,6.45-15.36,7.22-21.87,1.71l-289.6-246.58c-17.07-14.53-37.63-24.38-59.47-28.49l-.95-.18-.89-.35c-9.71-3.85-17.06-10.56-21.18-19.21-3.93,8.21-10.8,14.72-19.83,18.65l-1.11.48-1.2.2c-22.23,3.78-43.22,13.48-60.71,28.06l-291.73,243.37c-6.54,5.44-16.33,4.6-21.84-1.88l-55.29-65.05c-1.47-1.74-3.52-2.79-5.78-2.97-2.26-.18-4.46.52-6.19,1.99-3.57,3.04-4.01,8.41-.98,11.98l151.39,178.14c1.62,1.9,3.99,3,6.49,3,1.42,0,3.53-.35,5.49-2.02,1.74-1.48,2.79-3.53,2.98-5.79.18-2.26-.53-4.46-2-6.19l-43.37-51.03c-2.72-3.21-4.01-7.27-3.65-11.44.36-4.17,2.33-7.93,5.55-10.6l291.15-242.88c14.51-12.11,32.23-18.16,49.95-18.16ZM182.34,690.13h-.01s0,0,.01,0Z" fill="currentColor" stroke-width="0"/>
  </g>
</svg>