<?xml version="1.0" encoding="UTF-8"?>
<svg id="a" data-name="Livello 1" xmlns="http://www.w3.org/2000/svg" viewBox="0 0 1024 1024">
  <path d="M836.45,614.44l44.14-44.14c2.53-2.53,2.53-6.64,0-9.17l-44.14-44.14c-2.53-2.53-6.64-2.53-9.17,0l-123.92,123.92c-2.53,2.53-6.64,2.53-9.17,0l-310.31-310.31c-2.53-2.53-2.53-6.64,0-9.17l123.92-123.92c2.53-2.53,2.53-6.64,0-9.17l-44.14-44.14c-2.53-2.53-6.64-2.53-9.17,0l-44.14,44.14c-2.53,2.53-6.64,2.53-9.17,0l-44.14-44.14c-2.53-2.53-6.64-2.53-9.17,0l-70.61,70.61c-2.53,2.53-6.64,2.53-9.17,0l-44.14-44.14c-2.53-2.53-6.64-2.53-9.17,0l-44.14,44.14c-2.53,2.53-2.53,6.64,0,9.17l44.14,44.14c2.53,2.53,2.53,6.64,0,9.17l-70.61,70.61c-2.53,2.53-2.53,6.64,0,9.17l44.14,44.14c2.53,2.53,2.53,6.64,0,9.17l-44.14,44.14c-2.53,2.53-2.53,6.64,0,9.17l44.14,44.14c2.53,2.53,6.64,2.53,9.17,0l123.92-123.92c2.53-2.53,6.64-2.53,9.17,0l310.31,310.31c2.53,2.53,2.53,6.64,0,9.17l-123.92,123.92c-2.53,2.53-2.53,6.64,0,9.17l44.14,44.14c2.53,2.53,6.64,2.53,9.17,0l44.14-44.14c2.53-2.53,6.64-2.53,9.17,0l44.14,44.14c2.53,2.53,6.64,2.53,9.17,0l70.61-70.61c2.53-2.53,6.64-2.53,9.17,0l44.14,44.14c2.53,2.53,6.64,2.53,9.17,0l44.14-44.14c2.53-2.53,2.53-6.64,0-9.17l-44.14-44.14c-2.53-2.53-2.53-6.64,0-9.17l70.61-70.61c2.53-2.53,2.53-6.64,0-9.17l-44.14-44.14c-2.53-2.53-2.53-6.64,0-9.17Z" fill="currentColor" stroke-width="0"/>
</svg>