<?xml version="1.0" encoding="UTF-8"?>
<svg id="a" data-name="Livello 1" xmlns="http://www.w3.org/2000/svg" viewBox="0 0 1024 1024">
  <path d="M754.08,397.69c2.32-13.16,3.59-26.69,3.71-40.48,1.19-132.63-104.46-243.1-237.02-247.55-139.17-4.68-253.86,107.16-253.86,245.3,0,14.89,1.33,29.47,3.88,43.63,1.74,9.66-1.4,19.51-8.19,26.59-59.77,62.3-96.5,146.86-96.5,240.02s35.91,175.83,94.51,237.92c6.85,7.26,16.36,11.4,26.34,11.4h451.81c9.98,0,19.49-4.13,26.34-11.4,58.6-62.09,94.51-145.82,94.51-237.92s-37.06-178.47-97.28-240.84c-6.84-7.08-9.97-16.97-8.26-26.67ZM325.35,354.96c0-103.12,83.89-187.01,187.01-187.01s187.01,83.89,187.01,187.01c0,.06,0,.12,0,.18,0,7.68-8.39,12.38-15.06,8.58-50.56-28.82-109.07-45.28-171.44-45.28s-121.64,16.67-172.43,45.83c-6.67,3.83-15.06-.87-15.09-8.56,0-.25,0-.5,0-.75Z" fill="currentColor" stroke-width="0"/>
</svg>