<?xml version="1.0" encoding="UTF-8"?>
<svg id="a" data-name="Livello 1" xmlns="http://www.w3.org/2000/svg" viewBox="0 0 1024 1024">
  <path d="M508.89,60.51c119.15,0,110.27,133.78,110.27,133.78,0,0,17.15-7.87,17.15,39.35,0,47.22-33.08,50.88-33.08,50.88-7.35,21.66,0,84.02,0,84.02,0,0,115.17,114.67,150.7,106.8,35.53-7.87,68.61,5.62,68.61,5.62,110.27,43.84,91.89,197.86,85.66,216.92-6.23,19.06,0,25.19,0,25.19,23.17,22.89,17.26,96.27,17.26,108.64,0,12.37,3.68,76.44,20.83,86.56,17.15,10.12,33.23,105.66,33.23,105.66l-158.2.55s1.02-83.16-7.55-96.65c-8.58-13.49-26.95-92.18-26.95-92.18,0,0-41.66,112.42-57.58,127.03-15.93,14.61-11.03,61.8-11.03,61.8l-423.58-.55s4.9-47.19-11.03-61.8c-15.93-14.61-57.58-127.03-57.58-127.03,0,0-18.38,78.69-26.95,92.18s-7.55,96.65-7.55,96.65H38.4s16.08-95.54,33.23-105.66c17.15-10.12,20.83-74.2,20.83-86.56s-5.91-85.75,17.26-108.64c0,0,6.23-6.12,0-25.19-6.23-19.06-24.61-173.08,85.66-216.92,0,0,33.08-13.49,68.61-5.62,35.53,7.87,150.7-106.8,150.7-106.8,0,0,7.35-62.36,0-84.02,0,0-33.08-3.67-33.08-50.88s17.15-39.35,17.15-39.35c0,0-8.89-133.78,110.27-133.78h-.14Z" fill="currentColor" stroke-width="0"/>
</svg>