<?xml version="1.0" encoding="UTF-8"?>
<svg id="a" data-name="Livello 1" xmlns="http://www.w3.org/2000/svg" viewBox="0 0 1024 1024">
  <path d="M593.58,283.68c44.43,0,80.78-36.35,80.78-80.78s-36.35-80.78-80.78-80.78-80.78,36.35-80.78,80.78,36.35,80.78,80.78,80.78ZM465.54,768.37l23.02-100.98,84.82,80.78v201.95c0,22.21,18.18,40.39,40.39,40.39s40.39-18.18,40.39-40.39v-227.8c0-22.21-8.89-43.22-25.04-58.57l-59.78-56.95,24.23-121.17c43.22,50.08,105.82,86.03,176.1,97.34,24.23,3.64,46.04-15.75,46.04-40.39,0-19.79-14.54-36.35-34.33-39.58-61.39-10.1-112.28-46.45-139.35-94.11l-40.39-64.62c-16.16-24.23-40.39-40.39-68.66-40.39-12.12,0-20.2,4.04-32.31,4.04l-160.75,67.86c-29.89,12.92-49.28,42.01-49.28,74.72v95.72c0,22.21,18.18,40.39,40.39,40.39s40.39-18.18,40.39-40.39v-96.94l72.7-28.27-64.62,327.16-158.33-32.31c-21.81-4.44-43.22,9.69-47.66,31.5v1.62c-4.44,21.81,9.69,43.22,31.5,47.66l166,33.12c42.81,8.48,84.82-18.58,94.51-61.39Z" fill="currentColor" stroke-width="0"/>
</svg>