<?xml version="1.0" encoding="UTF-8"?>
<svg id="a" data-name="Livello 1" xmlns="http://www.w3.org/2000/svg" viewBox="0 0 1024 1024">
  <path d="M575.01,656.92h-156.33c-10.68,0-19.34-8.66-19.34-19.34h0c0-32.91,3.75-59.64,11.27-80.17,7.5-20.53,18.69-39.28,33.53-56.25s48.2-46.83,100.09-89.59c27.64-22.39,41.47-42.92,41.47-61.59s-5.56-33.17-16.67-43.52c-11.12-10.34-27.97-15.53-50.53-15.53-24.28,0-44.38,7.95-60.28,23.84-13.36,13.35-22.68,35.04-27.94,65.08-1.77,10.11-11.21,17.02-21.39,15.76l-160.03-19.67c-10.8-1.33-18.37-11.3-16.78-22.07,9.47-63.82,35.18-115.92,77.13-156.27,46.19-44.44,117.02-66.67,212.45-66.67,74.31,0,134.3,15.48,179.98,46.42,62.03,41.84,93.06,97.62,93.06,167.34,0,28.92-8.03,56.81-24.06,83.67-16.03,26.88-48.8,59.69-98.27,98.47-34.47,27.22-56.23,49.06-65.27,65.56-6.94,12.66-11.22,28.27-12.83,46.83-.87,10.01-9.22,17.7-19.27,17.7ZM418.75,708.92h157.91c10.68,0,19.34,8.66,19.34,19.34v145.31c0,10.68-8.66,19.34-19.34,19.34h-157.91c-10.68,0-19.34-8.66-19.34-19.34v-145.31c0-10.68,8.66-19.34,19.34-19.34Z" fill="currentColor" stroke-width="0"/>
</svg>