<?xml version="1.0" encoding="UTF-8"?>
<svg id="a" data-name="Livello 1" xmlns="http://www.w3.org/2000/svg" viewBox="0 0 1024 1024">
  <path d="M832.54,423.05v-35.47c0-2.03-1.65-3.68-3.68-3.68h-35.47c-2.03,0-3.68,1.65-3.68,3.68v99.57c0,2.03-1.65,3.68-3.68,3.68h-249.35c-2.03,0-3.68-1.65-3.68-3.68v-99.57c0-2.03-1.65-3.68-3.68-3.68h-35.47c-2.03,0-3.68,1.65-3.68,3.68v35.47c0,2.03-1.65,3.68-3.68,3.68h-35.47c-2.03,0-3.68,1.65-3.68,3.68v56.74c0,2.03-1.65,3.68-3.68,3.68h-35.47c-2.03,0-3.68,1.65-3.68,3.68v35.47c0,2.03,1.65,3.68,3.68,3.68h35.47c2.03,0,3.68,1.65,3.68,3.68v56.74c0,2.03,1.65,3.68,3.68,3.68h35.47c2.03,0,3.68,1.65,3.68,3.68v35.47c0,2.03,1.65,3.68,3.68,3.68h35.47c2.03,0,3.68-1.65,3.68-3.68v-99.57c0-2.03,1.65-3.68,3.68-3.68h249.35c2.03,0,3.68,1.65,3.68,3.68v99.57c0,2.03,1.65,3.68,3.68,3.68h35.47c2.03,0,3.68-1.65,3.68-3.68v-35.47c0-2.03,1.65-3.68,3.68-3.68h35.47c2.03,0,3.68-1.65,3.68-3.68v-56.74c0-2.03,1.65-3.68,3.68-3.68h35.47c2.03,0,3.68-1.65,3.68-3.68v-35.47c0-2.03-1.65-3.68-3.68-3.68h-35.47c-2.03,0-3.68-1.65-3.68-3.68v-56.74c0-2.03-1.65-3.68-3.68-3.68h-35.47c-2.03,0-3.68-1.65-3.68-3.68Z" fill="currentColor" stroke-width="0"/>
  <rect x="121" y="787.51" width="867" height="106" rx="35.71" ry="35.71" fill="currentColor" stroke-width="0"/>
  <rect x="211.56" y="291.25" width="93" height="549.76" rx="12" ry="12" transform="translate(166.49 -49.27) rotate(16.04)" fill="currentColor" stroke-width="0"/>
  <rect x="277" y="250.51" width="304" height="83" rx="30.29" ry="30.29" fill="currentColor" stroke-width="0"/>
  <rect x="195.3" y="93.98" width="117.99" height="254.79" rx="51.59" ry="51.59" transform="translate(-82.05 244.66) rotate(-45)" fill="currentColor" stroke-width="0"/>
  <rect x="198" y="724.51" width="779" height="76" rx="38" ry="38" fill="currentColor" stroke-width="0"/>
</svg>