<?xml version="1.0" encoding="UTF-8"?>
<svg id="a" data-name="Livello 1" xmlns="http://www.w3.org/2000/svg" viewBox="0 0 1024 1024">
  <path d="M559.93,241.28c15.93-1.8,31.91-3.65,47.68-6.59,12.52-2.33,24.81-5.6,37.44-7.35l-12.76,1.71c18.31-2.43,36.88-2.7,55.21-.33l-12.76-1.71c7.86,1.12,15.49,3.18,22.82,6.25l-11.47-4.84c8.59,3.74,16.56,9.06,23.97,14.76l-9.71-7.51c3.54,2.79,6.86,5.8,9.63,9.38-2.5-3.24-5-6.48-7.51-9.71,1.78,2.45,3.08,5.08,4.27,7.86-1.61-3.82-3.23-7.64-4.84-11.47,2.53,6.2,4.13,12.64,5.04,19.26l-1.71-12.76c1.22,9.77.94,19.59-.31,29.34l1.71-12.76c-2.02,14.79-6.16,29.22-11.93,42.98,1.61-3.82,3.23-7.64,4.84-11.47-4.93,11.55-10.85,22.64-16.01,34.08-6.66,14.74-12.64,29.61-16.53,45.33-7.08,28.66-9.56,58.46-9.43,87.93.23,52.84,4.92,105.45,7.28,158.19,1.28,28.67.07,57.64-3.7,86.1l1.71-12.76c-2.24,16.41-5.84,32.65-12.24,47.98,1.61-3.82,3.23-7.64,4.84-11.47-4.66,10.92-10.69,21.13-17.9,30.57,2.5-3.24,5-6.48,7.51-9.71-9.3,12.01-20.28,22.51-32.25,31.82l9.71-7.51c-18.72,14.41-39.46,26.17-61.2,35.37,3.82-1.61,7.64-3.23,11.47-4.84-22.55,9.43-46.24,16.13-70.47,19.46l12.76-1.71c-17.5,2.31-35.17,2.86-52.81,2.59s-35.05-.89-52.4-3.16l12.76,1.71c-13.84-1.89-27.94-4.5-40.88-9.93,3.82,1.61,7.64,3.23,11.47,4.84-7.92-3.43-15.3-7.85-22.16-13.09,3.24,2.5,6.48,5,9.71,7.51-7.94-6.18-15-13.33-21.21-21.25,2.5,3.24,5,6.48,7.51,9.71-6.02-7.8-11.32-16.25-15.31-25.27,1.61,3.82,3.23,7.64,4.84,11.47-1.44-3.44-2.53-6.91-3.1-10.6l1.71,12.76c-.66-5.39-.09-10.72.59-16.08s1.27-11.25,2.01-16.86l-1.71,12.76c4-28.82,14.08-56.35,23.38-83.79,9.54-28.15,19.44-56.19,28.82-84.4,4.6-13.82,9.32-27.65,13.16-41.7,4.69-17.16,7.49-34.58,9.56-52.24,1.61-13.73,2.01-27.71.26-41.44-1.33-10.44-2.39-20.72-6.37-30.51-2.58-6.33-5.04-13.01-8.66-18.9-1.93-3.15-4-6.23-6.1-9.27-6.4-9.28-13.05-18.6-21.22-26.4-5.21-4.98-10.72-9.62-15.85-14.69-8.92-8.82-18.24-17.29-25.98-27.21,2.5,3.24,5,6.48,7.51,9.71-3.91-5.11-7.3-10.53-9.83-16.46l4.84,11.47c-1.72-4.25-2.93-8.6-3.61-13.14l1.71,12.76c-.69-5.37-.56-10.69.1-16.05l-1.71,12.76c1.12-8,3.43-15.69,6.53-23.13-1.61,3.82-3.23,7.64-4.84,11.47,4.45-10.37,10.3-20.02,17.15-28.98l-7.51,9.71c9.62-12.37,21.12-23.36,33.5-32.93l-9.71,7.51c10.14-7.74,21.02-14.44,32.79-19.41-3.82,1.61-7.64,3.23-11.47,4.84,8.02-3.3,16.3-5.71,24.9-6.9l-12.76,1.71c6.57-.82,13.27-1.15,19.87-1.86,10.64-1.14,21.27-2.29,31.91-3.43,25.24-2.72,50.48-5.43,75.73-8.15,5.91-.64,11.82-1.27,17.74-1.91,6.61.25,12.77-1.13,18.49-4.13,5.95-1.94,11.1-5.24,15.45-9.92,4.68-4.35,7.99-9.5,9.92-15.45,3.01-5.72,4.38-11.88,4.13-18.49-.56-12.41-4.63-25.29-14.06-33.94-8.8-8.08-21.53-15.39-33.94-14.06-14.52,1.56-29.03,3.12-43.55,4.69-24.05,2.59-48.1,5.18-72.15,7.76-6.45.69-12.89,1.44-19.34,2.08-8.43.84-16.75,1.52-25.17,2.86-14.11,2.24-27.68,8.07-40.43,14.25-13.38,6.48-25,15.35-36.69,24.44-8.48,6.6-16.42,13.85-23.76,21.69-9.68,10.34-18.6,21.79-25.93,33.93-2.93,4.86-5.53,9.9-7.79,15.1-3.64,8.38-7.45,16.8-9.74,25.69-7.77,30.14-4.3,63.16,14,88.98,13.57,19.15,30.34,35.41,47.69,51.08,4.1,3.7,8.09,7.52,11.52,11.87-2.5-3.24-5-6.48-7.51-9.71,5.86,7.67,11.9,15.78,15.85,24.63l-4.84-11.47c2.47,5.88,3.98,11.99,4.89,18.3-.57-4.25-1.14-8.51-1.71-12.76,1.99,15.19,1.21,30.69-.81,45.83l1.71-12.76c-2.56,18.38-7.31,36.2-12.95,53.85-5.99,18.73-12.3,37.36-18.68,55.96-6.39,18.61-12.85,37.18-19.14,55.82s-12.69,36.64-17.28,55.42c-3.17,12.94-5.01,26.03-6.64,39.25-1.12,9.15-3.2,18.91-2.5,28.13.56,7.41,1.3,15.35,3.81,22.44,2.74,7.74,6.09,15.37,10.04,22.58,5.47,10,12.41,18.94,19.5,27.84,4.75,5.96,9.99,11.52,15.76,16.5,8.49,7.33,17.59,14.48,27.43,19.97,18.34,10.23,38.37,15.99,59.04,18.97,22.54,3.25,44.95,4.88,67.71,5.23s45.41-1.35,68.13-4.66c18-2.62,35.73-7.16,52.87-13.26,20.55-7.31,40.83-16.22,59.68-27.26,32.96-19.3,62.34-44.21,83.51-76.23,23.94-36.22,30.35-79.6,33.4-121.98,1.4-19.49,1.87-38.96.99-58.49-.89-19.89-2.43-39.75-3.57-59.62-2.23-38.94-4.8-78.26-3.46-117.28.34-9.77,1.06-19.52,2.33-29.22-.57,4.25-1.14,8.51-1.71,12.76,2.61-19.11,7.06-38.02,14.52-55.84l-4.84,11.47c10.41-24.44,23.95-47.55,30.94-73.37,3.78-13.96,5.99-28.64,6.8-43.04.29-5.25.25-10.51-.22-15.75-.8-8.93-1.83-18.15-4.16-26.86-2.26-8.46-5.72-16.84-9.79-24.55-2.79-5.29-7-9.97-10.75-14.54-1.64-2-3.48-3.81-5.42-5.51-10.15-8.9-22.35-18.24-34.79-24-8.38-3.88-17.07-7.7-26.06-10.01-9.64-2.48-19.69-3.53-29.58-4.48-12.5-1.2-25.11-1.23-37.62-.18-17.2,1.45-34.04,4.45-50.86,8.15-9.29,2.04-18.66,3.65-28.08,4.92l12.76-1.71c-5.78.77-11.56,1.45-17.35,2.11-6.61-.25-12.77,1.13-18.49,4.13-5.95,1.94-11.1,5.24-15.45,9.92-4.68,4.35-7.99,9.5-9.92,15.45-3.01,5.72-4.38,11.88-4.13,18.49.56,12.41,4.63,25.29,14.06,33.94,3.24,2.5,6.48,5,9.71,7.51,7.49,4.34,15.56,6.53,24.23,6.55Z" fill="currentColor" stroke-width="0"/>
</svg>