<?xml version="1.0" encoding="UTF-8"?>
<svg id="a" data-name="Livello 1" xmlns="http://www.w3.org/2000/svg" viewBox="0 0 1024 1024">
  <path d="M559.93,230.78c15-1.7,30.04-3.45,44.89-6.22,12.52-2.33,24.81-5.6,37.44-7.35-3.32.45-6.65.89-9.97,1.34,18.31-2.43,36.88-2.7,55.21-.33-3.32-.45-6.65-.89-9.97-1.34,7.86,1.12,15.49,3.18,22.82,6.25l-8.96-3.78c8.59,3.74,16.56,9.06,23.97,14.76l-7.59-5.86c3.54,2.79,6.86,5.8,9.63,9.38l-5.86-7.59c1.78,2.45,3.08,5.08,4.27,7.86l-3.78-8.96c2.53,6.2,4.13,12.64,5.04,19.26-.45-3.32-.89-6.65-1.34-9.97,1.22,9.77.94,19.59-.31,29.34l1.34-9.97c-2.02,14.79-6.16,29.22-11.93,42.98l3.78-8.96c-4.93,11.55-10.85,22.64-16.01,34.08-6.28,13.91-11.8,27.99-15.47,42.82-6.86,27.78-9.18,56.59-9.06,85.14.23,52.84,4.92,105.45,7.28,158.19,1.28,28.67.07,57.64-3.7,86.1l1.34-9.97c-2.24,16.41-5.84,32.65-12.24,47.98,1.26-2.99,2.52-5.97,3.78-8.96-4.66,10.92-10.69,21.13-17.9,30.57l5.86-7.59c-9.3,12.01-20.28,22.51-32.25,31.82l7.59-5.86c-18.72,14.41-39.46,26.17-61.2,35.37l8.96-3.78c-22.55,9.43-46.24,16.13-70.47,19.46,3.32-.45,6.65-.89,9.97-1.34-17.5,2.31-35.17,2.86-52.81,2.59-17.48-.27-35.05-.89-52.4-3.16,3.32.45,6.65.89,9.97,1.34-13.84-1.89-27.94-4.5-40.88-9.93,2.99,1.26,5.97,2.52,8.96,3.78-7.92-3.43-15.3-7.85-22.16-13.09l7.59,5.86c-7.94-6.18-15-13.33-21.21-21.25l5.86,7.59c-6.02-7.8-11.32-16.25-15.31-25.27l3.78,8.96c-1.44-3.44-2.53-6.91-3.1-10.6l1.34,9.97c-.66-5.39-.09-10.72.59-16.08s1.27-11.25,2.01-16.86l-1.34,9.97c4-28.82,14.08-56.35,23.38-83.79,9.54-28.15,19.44-56.19,28.82-84.4,4.6-13.82,9.32-27.65,13.16-41.7,4.44-16.24,7.22-32.73,9.18-49.45,1.61-13.73,2.02-27.71.26-41.44-1.22-9.52-2.36-18.79-6-27.72-3.84-9.41-7.98-17.37-13.7-25.66s-12.05-17.09-19.58-24.28c-5.21-4.98-10.72-9.62-15.85-14.69-8.92-8.82-18.24-17.29-25.98-27.21l5.86,7.59c-3.91-5.11-7.3-10.53-9.83-16.46,1.26,2.99,2.52,5.97,3.78,8.96-1.72-4.25-2.93-8.6-3.61-13.14.45,3.32.89,6.65,1.34,9.97-.69-5.37-.56-10.69.1-16.05-.45,3.32-.89,6.65-1.34,9.97,1.12-8,3.43-15.69,6.53-23.13l-3.78,8.96c4.45-10.37,10.3-20.02,17.15-28.98l-5.86,7.59c9.62-12.37,21.12-23.36,33.5-32.93-2.53,1.95-5.06,3.91-7.59,5.86,10.14-7.74,21.02-14.44,32.79-19.41-2.99,1.26-5.97,2.52-8.96,3.78,8.02-3.3,16.3-5.71,24.9-6.9l-9.97,1.34c6.57-.82,13.27-1.15,19.87-1.86,10.64-1.14,21.27-2.29,31.91-3.43,25.24-2.72,50.48-5.43,75.73-8.15,5.91-.64,11.82-1.27,17.74-1.91,5.16.19,9.98-.88,14.45-3.23,4.65-1.51,8.67-4.1,12.07-7.75,6.5-6.5,11.4-17.18,10.98-26.52s-3.62-19.76-10.98-26.52c-6.87-6.31-16.82-12.03-26.52-10.98-14.52,1.56-29.03,3.12-43.55,4.69-24.05,2.59-48.1,5.18-72.15,7.76-6.45.69-12.89,1.44-19.34,2.08-7.49.74-14.89,1.3-22.38,2.48-13.24,2.1-25.94,7.38-37.92,13.19s-23.59,14.26-34.56,22.8c-8.48,6.59-16.42,13.85-23.76,21.69-9.08,9.7-17.42,20.42-24.28,31.81-2.93,4.86-5.53,9.9-7.79,15.1-3.29,7.58-6.61,15.16-8.68,23.18-7.11,27.6-3.77,57.3,12.94,80.89,13,18.35,29.42,33.94,46.05,48.95,4.1,3.7,8.09,7.52,11.52,11.87l-5.86-7.59c5.86,7.67,11.9,15.78,15.85,24.63-1.26-2.99-2.52-5.97-3.78-8.96,2.47,5.88,3.98,11.99,4.89,18.3l-1.34-9.97c1.99,15.19,1.21,30.69-.81,45.83.45-3.32.89-6.65,1.34-9.97-2.56,18.38-7.31,36.2-12.95,53.85-5.99,18.73-12.3,37.36-18.68,55.96-6.39,18.61-12.85,37.18-19.14,55.82-6.18,18.31-12.69,36.64-17.28,55.42-2.94,12.02-4.75,24.18-6.26,36.46-1.12,9.15-3.2,18.91-2.5,28.13.49,6.52,1.23,13.42,3.44,19.65,2.44,6.89,5.47,13.66,8.98,20.08,5.04,9.21,11.33,17.51,17.86,25.72,11.12,13.96,25.5,26.14,41.07,34.83,17.53,9.78,36.78,15.06,56.53,17.91,43.09,6.21,87.15,6.85,130.26.57,18-2.62,35.73-7.16,52.87-13.26,19.71-7.02,39.1-15.62,57.17-26.2,31.36-18.36,59.59-41.98,79.74-72.46,22.91-34.66,29.05-76.11,31.96-116.68,1.4-19.49,1.87-38.96.99-58.49s-2.43-39.75-3.57-59.62c-2.23-38.94-4.8-78.26-3.46-117.28.34-9.77,1.06-19.52,2.33-29.22-.45,3.32-.89,6.65-1.34,9.97,2.61-19.11,7.06-38.02,14.52-55.84l-3.78,8.96c10.06-23.62,23.13-45.91,29.88-70.86,6.97-25.75,9.38-54.04,2.42-80.07-4.02-15.05-11.42-29.59-23.26-39.97-9.58-8.39-20.99-16.95-32.66-22.36-7.59-3.51-15.43-6.86-23.56-8.95-8.74-2.25-17.82-3.24-26.79-4.1-12.5-1.2-25.11-1.23-37.62-.18-16.26,1.37-32.16,4.28-48.07,7.77-9.29,2.04-18.66,3.65-28.08,4.92,3.32-.45,6.65-.89,9.97-1.34-5.78.77-11.56,1.45-17.35,2.11-5.16-.19-9.98.88-14.45,3.23-4.65,1.51-8.67,4.1-12.07,7.75-6.5,6.5-11.4,17.18-10.98,26.52s3.62,19.76,10.98,26.52c6.85,6.29,16.84,12.08,26.52,10.98Z" fill="currentColor" stroke-width="0"/>
</svg>