<?xml version="1.0" encoding="UTF-8"?>
<svg id="x" data-name="Livello 24" xmlns="http://www.w3.org/2000/svg" viewBox="0 0 24 24">
  <path d="M19,5h-2v-1c0-.55-.45-1-1-1h-8c-.55,0-1,.45-1,1v1h-2c-1.1,0-2,.9-2,2v1c0,2.55,1.92,4.63,4.39,4.94.63,1.5,1.98,2.63,3.61,2.96v3.1h-3c-.55,0-1,.45-1,1h0c0,.55.45,1,1,1h8c.55,0,1-.45,1-1h0c0-.55-.45-1-1-1h-3v-3.1c1.63-.33,2.98-1.46,3.61-2.96,2.47-.31,4.39-2.39,4.39-4.94v-1c0-1.1-.9-2-2-2ZM5,8v-1h2v3.82c-1.16-.42-2-1.52-2-2.82ZM19,8c0,1.3-.84,2.4-2,2.82v-3.82h2v1Z" fill="currentColor" stroke-width="0"/>
  <g>
    <path d="M15.78,8.75c-.11.19-.3.29-.5.29-.1,0-.2-.02-.29-.08l-1.87-1.07v3.92l1.83,2.6c.18.26.12.62-.14.8-.1.07-.22.11-.33.11-.18,0-.36-.09-.47-.25l-2.01-2.85-2.01,2.85c-.11.16-.29.25-.47.25-.11,0-.23-.03-.33-.11-.26-.18-.32-.54-.14-.8l1.83-2.6v-3.92l-1.87,1.07c-.09.05-.19.08-.29.08-.2,0-.39-.1-.5-.29-.16-.28-.06-.63.21-.79l2.93-1.68s.09-.04.14-.06c.15-.08.32-.13.5-.13s.35.05.5.13c.05.01.09.03.14.06l2.93,1.68c.28.16.37.51.21.79Z" fill="currentColor" stroke-width="0"/>
    <circle cx="12" cy="4.64" r="1.14" fill="currentColor" stroke-width="0"/>
  </g>
  <g opacity=".4">
    <path d="M15.78,8.75c-.11.19-.3.29-.5.29-.1,0-.2-.02-.29-.08l-1.87-1.07v3.92l1.83,2.6c.18.26.12.62-.14.8-.1.07-.22.11-.33.11-.18,0-.36-.09-.47-.25l-2.01-2.85-2.01,2.85c-.11.16-.29.25-.47.25-.11,0-.23-.03-.33-.11-.26-.18-.32-.54-.14-.8l1.83-2.6v-3.92l-1.87,1.07c-.09.05-.19.08-.29.08-.2,0-.39-.1-.5-.29-.16-.28-.06-.63.21-.79l2.93-1.68s.09-.04.14-.06c.15-.08.32-.13.5-.13s.35.05.5.13c.05.01.09.03.14.06l2.93,1.68c.28.16.37.51.21.79Z" fill="#000" stroke-width="0"/>
    <circle cx="12" cy="4.64" r="1.14" fill="#000" stroke-width="0"/>
  </g>
  <g>
    <path d="M15.78,8.25c-.11.19-.3.29-.5.29-.1,0-.2-.02-.29-.08l-1.87-1.07v3.92l1.83,2.6c.18.26.12.62-.14.8-.1.07-.22.11-.33.11-.18,0-.36-.09-.47-.25l-2.01-2.85-2.01,2.85c-.11.16-.29.25-.47.25-.11,0-.23-.03-.33-.11-.26-.18-.32-.54-.14-.8l1.83-2.6v-3.92l-1.87,1.07c-.09.05-.19.08-.29.08-.2,0-.39-.1-.5-.29-.16-.28-.06-.63.21-.79l2.93-1.68s.09-.04.14-.06c.15-.08.32-.13.5-.13s.35.05.5.13c.05.01.09.03.14.06l2.93,1.68c.28.16.37.51.21.79Z" fill="currentColor" stroke-width="0"/>
    <circle cx="12" cy="4.14" r="1.14" fill="currentColor" stroke-width="0"/>
  </g>
  <g opacity=".7">
    <path d="M15.78,8.25c-.11.19-.3.29-.5.29-.1,0-.2-.02-.29-.08l-1.87-1.07v3.92l1.83,2.6c.18.26.12.62-.14.8-.1.07-.22.11-.33.11-.18,0-.36-.09-.47-.25l-2.01-2.85-2.01,2.85c-.11.16-.29.25-.47.25-.11,0-.23-.03-.33-.11-.26-.18-.32-.54-.14-.8l1.83-2.6v-3.92l-1.87,1.07c-.09.05-.19.08-.29.08-.2,0-.39-.1-.5-.29-.16-.28-.06-.63.21-.79l2.93-1.68s.09-.04.14-.06c.15-.08.32-.13.5-.13s.35.05.5.13c.05.01.09.03.14.06l2.93,1.68c.28.16.37.51.21.79Z" fill="#fff" stroke-width="0"/>
    <circle cx="12" cy="4.14" r="1.14" fill="#fff" stroke-width="0"/>
  </g>
</svg>