<?xml version="1.0" encoding="UTF-8"?>
<svg id="q" data-name="Livello 17" xmlns="http://www.w3.org/2000/svg" viewBox="0 0 24 24">
  <path d="M19,5h-2v-1c0-.55-.45-1-1-1h-8c-.55,0-1,.45-1,1v1h-2c-1.1,0-2,.9-2,2v1c0,1.79.95,3.35,2.37,4.22h0c.23.15.47.27.72.38.41.16.85.28,1.3.34.63,1.5,1.98,2.63,3.61,2.96v3.1h-3c-.55,0-1,.45-1,1s.45,1,1,1h8c.55,0,1-.45,1-1s-.45-1-1-1h-3v-3.1c1.63-.33,2.98-1.46,3.61-2.96,1.15-.15,2.18-.67,2.96-1.46.41-.41.75-.9.98-1.44.29-.62.45-1.31.45-2.04v-1c0-1.1-.9-2-2-2ZM6.49,10.57c-.5-.28-.9-.71-1.16-1.22-.17-.33-.28-.7-.31-1.09-.02-.08-.02-.17-.02-.26v-1h2v3.82s-.04-.02-.06-.03c-.16-.05-.31-.13-.45-.22ZM17.95,10.25c-.22.21-.47.37-.75.48-.06.04-.13.07-.2.09v-3.82h2v1c0,.25-.03.49-.1.72-.14.61-.49,1.15-.95,1.53Z" fill="currentColor" stroke-width="0"/>
  <g>
    <g>
      <path d="M6.36,6.38c-.09-.11-.22-.17-.37-.17-.13,0-.22.03-.27.07-.07.06-.13.21-.31.42-.15.17-.19.21-.3.3-.03.03-.06.06-.11.1-.21.18-.62.55-.97.71-.23.11-.39.2-.48.27-.09.06-.14.17-.14.32,0,.12.05.23.14.33.09.09.2.14.32.14.21,0,.6-.2,1.15-.61.1-.06.2-.14.31-.22v3.89c0,.11.01.21.04.29h0c.23.15.47.27.72.38.27-.08.4-.36.4-.84v-4.89c0-.21-.04-.37-.13-.49Z" fill="currentColor" stroke-width="0"/>
      <path d="M11.19,9.44c0,.47-.03.87-.09,1.21s-.16.64-.32.91c-.19.34-.44.6-.75.78s-.65.27-1.03.27c-.43,0-.82-.12-1.17-.37s-.6-.58-.78-1.02c-.09-.24-.15-.5-.19-.78s-.06-.6-.06-.93c0-.43.02-.82.07-1.16s.12-.64.21-.89c.17-.41.41-.72.73-.94s.7-.32,1.15-.32c.29,0,.56.05.8.14s.45.24.63.42.33.41.46.68c.22.47.32,1.14.32,2ZM10.02,9.35c0-.52-.03-.95-.09-1.28s-.17-.58-.32-.75-.35-.25-.62-.25c-.38,0-.64.19-.78.57s-.22.96-.22,1.75c0,.54.03.97.09,1.32s.17.6.32.78.35.26.6.26.47-.09.62-.27.25-.44.31-.78.09-.78.09-1.33Z" fill="currentColor" stroke-width="0"/>
      <path d="M15.73,9.44c0,.47-.03.87-.09,1.21s-.16.64-.32.91c-.19.34-.44.6-.75.78s-.65.27-1.03.27c-.43,0-.82-.12-1.17-.37s-.6-.58-.78-1.02c-.09-.24-.15-.5-.19-.78s-.06-.6-.06-.93c0-.43.02-.82.07-1.16s.12-.64.21-.89c.17-.41.41-.72.73-.94s.7-.32,1.15-.32c.29,0,.56.05.8.14s.45.24.63.42.33.41.46.68c.22.47.32,1.14.32,2ZM14.56,9.35c0-.52-.03-.95-.09-1.28s-.17-.58-.32-.75-.35-.25-.62-.25c-.38,0-.64.19-.78.57s-.22.96-.22,1.75c0,.54.03.97.09,1.32s.17.6.32.78.35.26.6.26.47-.09.62-.27.25-.44.31-.78.09-.78.09-1.33Z" fill="currentColor" stroke-width="0"/>
      <path d="M20.53,9.94c-.04-.14-.09-.25-.17-.34-.08-.09-.18-.16-.29-.21-.11-.04-.24-.06-.39-.06-.31,0-.53.09-.67.28-.14.18-.21.46-.21.83,0,.23.03.43.11.59.08.16.18.27.32.35.11.05.22.09.34.1.41-.41.75-.9.98-1.44,0-.04-.01-.07-.02-.1ZM19.98,10.95c-.05.13-.15.19-.29.19-.13,0-.23-.06-.28-.18-.06-.12-.08-.31-.08-.56,0-.16.01-.3.03-.4.02-.11.06-.18.11-.24.06-.05.13-.08.22-.08.14,0,.23.06.29.17.05.12.08.29.08.54s-.03.44-.08.56ZM19.62,7.28s-.08-.05-.13-.05c-.06,0-.11.01-.14.05-.03.03-.07.09-.11.16l-.24.39-1.8,2.9-.35.57s-.05.1-.05.14c0,.05.02.1.06.13.04.03.09.05.13.05.08,0,.15-.05.21-.16l.75-1.21.95-1.53.67-1.08c.07-.12.11-.19.11-.23,0-.06-.02-.1-.06-.13ZM17.61,7.88c-.03-.13-.09-.25-.17-.34-.08-.1-.17-.17-.29-.21-.05-.02-.1-.04-.15-.04-.07-.02-.15-.03-.24-.03-.2,0-.37.04-.5.13-.13.08-.23.21-.29.37-.06.17-.09.38-.09.62s.04.43.12.59c.07.16.18.27.32.35.13.07.28.11.46.11.08,0,.15-.01.22-.03.17-.03.32-.11.43-.23.16-.18.24-.45.24-.81,0-.19-.02-.34-.06-.48ZM17.06,8.9s-.04.07-.06.09c-.05.06-.12.09-.22.09s-.17-.03-.22-.09c-.06-.05-.09-.13-.11-.24-.02-.1-.03-.24-.03-.41,0-.16.01-.3.03-.4.02-.11.05-.19.11-.24.05-.06.12-.08.22-.08.09,0,.16.03.22.08.02.03.04.06.06.09.05.11.08.29.08.54s-.03.45-.08.57Z" fill="currentColor" stroke-width="0"/>
    </g>
    <g opacity=".4">
      <path d="M6.36,6.38c-.09-.11-.22-.17-.37-.17-.13,0-.22.03-.27.07-.07.06-.13.21-.31.42-.15.17-.19.21-.3.3-.03.03-.06.06-.11.1-.21.18-.62.55-.97.71-.23.11-.39.2-.48.27-.09.06-.14.17-.14.32,0,.12.05.23.14.33.09.09.2.14.32.14.21,0,.6-.2,1.15-.61.1-.06.2-.14.31-.22v3.89c0,.11.01.21.04.29h0c.23.15.47.27.72.38.27-.08.4-.36.4-.84v-4.89c0-.21-.04-.37-.13-.49Z" fill="#000" stroke-width="0"/>
      <path d="M11.19,9.44c0,.47-.03.87-.09,1.21s-.16.64-.32.91c-.19.34-.44.6-.75.78s-.65.27-1.03.27c-.43,0-.82-.12-1.17-.37s-.6-.58-.78-1.02c-.09-.24-.15-.5-.19-.78s-.06-.6-.06-.93c0-.43.02-.82.07-1.16s.12-.64.21-.89c.17-.41.41-.72.73-.94s.7-.32,1.15-.32c.29,0,.56.05.8.14s.45.24.63.42.33.41.46.68c.22.47.32,1.14.32,2ZM10.02,9.35c0-.52-.03-.95-.09-1.28s-.17-.58-.32-.75-.35-.25-.62-.25c-.38,0-.64.19-.78.57s-.22.96-.22,1.75c0,.54.03.97.09,1.32s.17.6.32.78.35.26.6.26.47-.09.62-.27.25-.44.31-.78.09-.78.09-1.33Z" fill="#000" stroke-width="0"/>
      <path d="M15.73,9.44c0,.47-.03.87-.09,1.21s-.16.64-.32.91c-.19.34-.44.6-.75.78s-.65.27-1.03.27c-.43,0-.82-.12-1.17-.37s-.6-.58-.78-1.02c-.09-.24-.15-.5-.19-.78s-.06-.6-.06-.93c0-.43.02-.82.07-1.16s.12-.64.21-.89c.17-.41.41-.72.73-.94s.7-.32,1.15-.32c.29,0,.56.05.8.14s.45.24.63.42.33.41.46.68c.22.47.32,1.14.32,2ZM14.56,9.35c0-.52-.03-.95-.09-1.28s-.17-.58-.32-.75-.35-.25-.62-.25c-.38,0-.64.19-.78.57s-.22.96-.22,1.75c0,.54.03.97.09,1.32s.17.6.32.78.35.26.6.26.47-.09.62-.27.25-.44.31-.78.09-.78.09-1.33Z" fill="#000" stroke-width="0"/>
      <path d="M20.53,9.94c-.04-.14-.09-.25-.17-.34-.08-.09-.18-.16-.29-.21-.11-.04-.24-.06-.39-.06-.31,0-.53.09-.67.28-.14.18-.21.46-.21.83,0,.23.03.43.11.59.08.16.18.27.32.35.11.05.22.09.34.1.41-.41.75-.9.98-1.44,0-.04-.01-.07-.02-.1ZM19.98,10.95c-.05.13-.15.19-.29.19-.13,0-.23-.06-.28-.18-.06-.12-.08-.31-.08-.56,0-.16.01-.3.03-.4.02-.11.06-.18.11-.24.06-.05.13-.08.22-.08.14,0,.23.06.29.17.05.12.08.29.08.54s-.03.44-.08.56ZM19.62,7.28s-.08-.05-.13-.05c-.06,0-.11.01-.14.05-.03.03-.07.09-.11.16l-.24.39-1.8,2.9-.35.57s-.05.1-.05.14c0,.05.02.1.06.13.04.03.09.05.13.05.08,0,.15-.05.21-.16l.75-1.21.95-1.53.67-1.08c.07-.12.11-.19.11-.23,0-.06-.02-.1-.06-.13ZM17.61,7.88c-.03-.13-.09-.25-.17-.34-.08-.1-.17-.17-.29-.21-.05-.02-.1-.04-.15-.04-.07-.02-.15-.03-.24-.03-.2,0-.37.04-.5.13-.13.08-.23.21-.29.37-.06.17-.09.38-.09.62s.04.43.12.59c.07.16.18.27.32.35.13.07.28.11.46.11.08,0,.15-.01.22-.03.17-.03.32-.11.43-.23.16-.18.24-.45.24-.81,0-.19-.02-.34-.06-.48ZM17.06,8.9s-.04.07-.06.09c-.05.06-.12.09-.22.09s-.17-.03-.22-.09c-.06-.05-.09-.13-.11-.24-.02-.1-.03-.24-.03-.41,0-.16.01-.3.03-.4.02-.11.05-.19.11-.24.05-.06.12-.08.22-.08.09,0,.16.03.22.08.02.03.04.06.06.09.05.11.08.29.08.54s-.03.45-.08.57Z" fill="#000" stroke-width="0"/>
    </g>
  </g>
  <g>
    <path d="M5.33,11.43v-3.89c-.72.56-1.21.83-1.46.83-.12,0-.23-.05-.32-.14s-.14-.21-.14-.33c0-.15.05-.25.14-.32s.25-.16.48-.27c.34-.16.76-.53.97-.71s.21-.18.41-.41c.18-.21.25-.36.31-.41.05-.05.14-.08.27-.08.15,0,.27.06.36.18s.14.28.14.48v4.9c0,.57-.2.86-.59.86-.17,0-.31-.06-.42-.18s-.16-.29-.16-.52Z" fill="currentColor" stroke-width="0"/>
    <path d="M11.19,8.94c0,.47-.03.87-.09,1.21s-.16.64-.32.91c-.19.34-.44.6-.75.78s-.65.27-1.03.27c-.43,0-.82-.12-1.17-.37s-.6-.58-.78-1.02c-.09-.24-.15-.5-.19-.78s-.06-.6-.06-.93c0-.43.02-.82.07-1.16s.12-.64.21-.89c.17-.41.41-.72.73-.94s.7-.32,1.15-.32c.29,0,.56.05.8.14s.45.24.63.42.33.41.46.68c.22.47.32,1.14.32,2ZM10.02,8.85c0-.52-.03-.95-.09-1.28s-.17-.58-.32-.75-.35-.25-.62-.25c-.38,0-.64.19-.78.57s-.22.96-.22,1.75c0,.54.03.97.09,1.32s.17.6.32.78.35.26.6.26.47-.09.62-.27.25-.44.31-.78.09-.78.09-1.33Z" fill="currentColor" stroke-width="0"/>
    <path d="M15.73,8.94c0,.47-.03.87-.09,1.21s-.16.64-.32.91c-.19.34-.44.6-.75.78s-.65.27-1.03.27c-.43,0-.82-.12-1.17-.37s-.6-.58-.78-1.02c-.09-.24-.15-.5-.19-.78s-.06-.6-.06-.93c0-.43.02-.82.07-1.16s.12-.64.21-.89c.17-.41.41-.72.73-.94s.7-.32,1.15-.32c.29,0,.56.05.8.14s.45.24.63.42.33.41.46.68c.22.47.32,1.14.32,2ZM14.56,8.85c0-.52-.03-.95-.09-1.28s-.17-.58-.32-.75-.35-.25-.62-.25c-.38,0-.64.19-.78.57s-.22.96-.22,1.75c0,.54.03.97.09,1.32s.17.6.32.78.35.26.6.26.47-.09.62-.27.25-.44.31-.78.09-.78.09-1.33Z" fill="currentColor" stroke-width="0"/>
    <path d="M17.67,7.86c0,.36-.08.63-.24.81s-.38.27-.66.27c-.17,0-.32-.04-.46-.11s-.24-.19-.32-.35-.11-.35-.11-.58c0-.25.03-.45.09-.62s.15-.29.29-.38.3-.13.51-.13c.15,0,.28.02.39.07s.21.12.29.21.14.21.17.34.06.29.06.48ZM17.14,7.83c0-.25-.03-.43-.08-.54s-.15-.17-.28-.17c-.09,0-.16.03-.22.08s-.09.13-.11.24-.03.24-.03.4,0,.31.03.41.06.19.11.24.13.08.22.08c.14,0,.24-.06.29-.18s.08-.31.08-.57ZM19.57,7.14l-2.37,3.83c-.06.1-.13.16-.21.16-.04,0-.09-.02-.13-.05s-.07-.08-.07-.13c0-.04.02-.09.06-.15l2.39-3.86c.04-.07.08-.12.11-.16s.08-.05.14-.05.1.02.14.05.05.08.05.13c0,.04-.03.12-.11.23ZM20.59,9.92c0,.36-.08.63-.24.81s-.38.27-.66.27c-.17,0-.33-.04-.46-.11s-.24-.19-.32-.35-.12-.35-.12-.58c0-.37.07-.65.21-.84s.37-.28.67-.28c.15,0,.28.02.39.07s.21.11.29.21.14.2.18.34.06.3.06.48ZM20.06,9.89c0-.25-.03-.42-.08-.54s-.15-.17-.28-.17c-.09,0-.17.03-.22.08s-.09.13-.11.24-.03.24-.03.4c0,.25.03.44.08.56s.15.18.29.18.23-.06.29-.18.08-.31.08-.57Z" fill="currentColor" stroke-width="0"/>
  </g>
  <g opacity=".7">
    <path d="M5.33,11.43v-3.89c-.72.56-1.21.83-1.46.83-.12,0-.23-.05-.32-.14s-.14-.21-.14-.33c0-.15.05-.25.14-.32s.25-.16.48-.27c.34-.16.76-.53.97-.71s.21-.18.41-.41c.18-.21.25-.36.31-.41.05-.05.14-.08.27-.08.15,0,.27.06.36.18s.14.28.14.48v4.9c0,.57-.2.86-.59.86-.17,0-.31-.06-.42-.18s-.16-.29-.16-.52Z" fill="#fff" stroke-width="0"/>
    <path d="M11.19,8.94c0,.47-.03.87-.09,1.21s-.16.64-.32.91c-.19.34-.44.6-.75.78s-.65.27-1.03.27c-.43,0-.82-.12-1.17-.37s-.6-.58-.78-1.02c-.09-.24-.15-.5-.19-.78s-.06-.6-.06-.93c0-.43.02-.82.07-1.16s.12-.64.21-.89c.17-.41.41-.72.73-.94s.7-.32,1.15-.32c.29,0,.56.05.8.14s.45.24.63.42.33.41.46.68c.22.47.32,1.14.32,2ZM10.02,8.85c0-.52-.03-.95-.09-1.28s-.17-.58-.32-.75-.35-.25-.62-.25c-.38,0-.64.19-.78.57s-.22.96-.22,1.75c0,.54.03.97.09,1.32s.17.6.32.78.35.26.6.26.47-.09.62-.27.25-.44.31-.78.09-.78.09-1.33Z" fill="#fff" stroke-width="0"/>
    <path d="M15.73,8.94c0,.47-.03.87-.09,1.21s-.16.64-.32.91c-.19.34-.44.6-.75.78s-.65.27-1.03.27c-.43,0-.82-.12-1.17-.37s-.6-.58-.78-1.02c-.09-.24-.15-.5-.19-.78s-.06-.6-.06-.93c0-.43.02-.82.07-1.16s.12-.64.21-.89c.17-.41.41-.72.73-.94s.7-.32,1.15-.32c.29,0,.56.05.8.14s.45.24.63.42.33.41.46.68c.22.47.32,1.14.32,2ZM14.56,8.85c0-.52-.03-.95-.09-1.28s-.17-.58-.32-.75-.35-.25-.62-.25c-.38,0-.64.19-.78.57s-.22.96-.22,1.75c0,.54.03.97.09,1.32s.17.6.32.78.35.26.6.26.47-.09.62-.27.25-.44.31-.78.09-.78.09-1.33Z" fill="#fff" stroke-width="0"/>
    <path d="M17.67,7.86c0,.36-.08.63-.24.81s-.38.27-.66.27c-.17,0-.32-.04-.46-.11s-.24-.19-.32-.35-.11-.35-.11-.58c0-.25.03-.45.09-.62s.15-.29.29-.38.3-.13.51-.13c.15,0,.28.02.39.07s.21.12.29.21.14.21.17.34.06.29.06.48ZM17.14,7.83c0-.25-.03-.43-.08-.54s-.15-.17-.28-.17c-.09,0-.16.03-.22.08s-.09.13-.11.24-.03.24-.03.4,0,.31.03.41.06.19.11.24.13.08.22.08c.14,0,.24-.06.29-.18s.08-.31.08-.57ZM19.57,7.14l-2.37,3.83c-.06.1-.13.16-.21.16-.04,0-.09-.02-.13-.05s-.07-.08-.07-.13c0-.04.02-.09.06-.15l2.39-3.86c.04-.07.08-.12.11-.16s.08-.05.14-.05.1.02.14.05.05.08.05.13c0,.04-.03.12-.11.23ZM20.59,9.92c0,.36-.08.63-.24.81s-.38.27-.66.27c-.17,0-.33-.04-.46-.11s-.24-.19-.32-.35-.12-.35-.12-.58c0-.37.07-.65.21-.84s.37-.28.67-.28c.15,0,.28.02.39.07s.21.11.29.21.14.2.18.34.06.3.06.48ZM20.06,9.89c0-.25-.03-.42-.08-.54s-.15-.17-.28-.17c-.09,0-.17.03-.22.08s-.09.13-.11.24-.03.24-.03.4c0,.25.03.44.08.56s.15.18.29.18.23-.06.29-.18.08-.31.08-.57Z" fill="#fff" stroke-width="0"/>
  </g>
</svg>