<?xml version="1.0" encoding="UTF-8"?>
<svg id="j" data-name="Livello 10" xmlns="http://www.w3.org/2000/svg" viewBox="0 0 24 24">
  <path d="M19,5h-2v-1c0-.55-.45-1-1-1h-8c-.55,0-1,.45-1,1v1h-2c-1.1,0-2,.9-2,2v1c0,2.55,1.92,4.63,4.39,4.94.63,1.5,1.98,2.63,3.61,2.96v3.1h-3c-.55,0-1,.45-1,1h0c0,.55.45,1,1,1h8c.55,0,1-.45,1-1h0c0-.55-.45-1-1-1h-3v-3.1c1.63-.33,2.98-1.46,3.61-2.96,2.47-.31,4.39-2.39,4.39-4.94v-1c0-1.1-.9-2-2-2ZM5,8v-1h2v3.82c-1.16-.42-2-1.52-2-2.82ZM19,8c0,1.3-.84,2.4-2,2.82v-3.82h2v1Z" fill="currentColor" stroke-width="0"/>
  <path d="M15.3,8.09l-.91-2.5c-.15-.42-.56-.71-1-.71h-.85c-.29,0-.53.24-.53.53h0c0,.29.24.53.53.53h.85l.78,2.14h-2.57l-.19-.53h.05c.29,0,.53-.24.53-.53h0c0-.29-.24-.53-.53-.53h-1.59c-.29,0-.53.24-.53.53h0c0,.29.24.53.53.53h.4l.97,2.67h-.36c-.24-1.19-1.23-2.07-2.48-2.13-1.5-.07-2.8,1.17-2.8,2.67s1.18,2.67,2.67,2.67c1.31,0,2.38-.9,2.62-2.14h2.24c.24,1.19,1.23,2.07,2.48,2.13,1.5.07,2.8-1.17,2.8-2.67s-1.18-2.67-2.67-2.67h-.44ZM9.77,11.3c-.22.66-.85,1.11-1.61,1.06-.8-.05-1.46-.72-1.5-1.52-.04-.93.68-1.68,1.6-1.68.71,0,1.29.44,1.51,1.07h-.97c-.29,0-.53.24-.53.53h0c0,.29.24.53.53.53h.97ZM13.12,10.23h-.75l-.39-1.07h1.62c-.24.31-.41.67-.48,1.07ZM15.68,12.37c-.82-.03-1.52-.73-1.54-1.56-.01-.51.21-.96.56-1.26l.33.91c.1.28.41.42.68.32h0c.28-.1.42-.41.32-.68l-.34-.92h0c.92-.03,1.65.68,1.65,1.6,0,.92-.74,1.63-1.67,1.6Z" fill="currentColor" stroke-width="0"/>
  <path d="M15.3,8.09l-.91-2.5c-.15-.42-.56-.71-1-.71h-.85c-.29,0-.53.24-.53.53h0c0,.29.24.53.53.53h.85l.78,2.14h-2.57l-.19-.53h.05c.29,0,.53-.24.53-.53h0c0-.29-.24-.53-.53-.53h-1.59c-.29,0-.53.24-.53.53h0c0,.29.24.53.53.53h.4l.97,2.67h-.36c-.24-1.19-1.23-2.07-2.48-2.13-1.5-.07-2.8,1.17-2.8,2.67s1.18,2.67,2.67,2.67c1.31,0,2.38-.9,2.62-2.14h2.24c.24,1.19,1.23,2.07,2.48,2.13,1.5.07,2.8-1.17,2.8-2.67s-1.18-2.67-2.67-2.67h-.44ZM9.77,11.3c-.22.66-.85,1.11-1.61,1.06-.8-.05-1.46-.72-1.5-1.52-.04-.93.68-1.68,1.6-1.68.71,0,1.29.44,1.51,1.07h-.97c-.29,0-.53.24-.53.53h0c0,.29.24.53.53.53h.97ZM13.12,10.23h-.75l-.39-1.07h1.62c-.24.31-.41.67-.48,1.07ZM15.68,12.37c-.82-.03-1.52-.73-1.54-1.56-.01-.51.21-.96.56-1.26l.33.91c.1.28.41.42.68.32h0c.28-.1.42-.41.32-.68l-.34-.92h0c.92-.03,1.65.68,1.65,1.6,0,.92-.74,1.63-1.67,1.6Z" fill="#000" opacity=".4" stroke-width="0"/>
  <path d="M15.3,7.59l-.91-2.5c-.15-.42-.56-.71-1-.71h-.85c-.29,0-.53.24-.53.53h0c0,.29.24.53.53.53h.85l.78,2.14h-2.57l-.19-.53h.05c.29,0,.53-.24.53-.53h0c0-.29-.24-.53-.53-.53h-1.59c-.29,0-.53.24-.53.53h0c0,.29.24.53.53.53h.4l.97,2.67h-.36c-.24-1.19-1.23-2.07-2.48-2.13-1.5-.07-2.8,1.17-2.8,2.67s1.18,2.67,2.67,2.67c1.31,0,2.38-.9,2.62-2.14h2.24c.24,1.19,1.23,2.07,2.48,2.13,1.5.07,2.8-1.17,2.8-2.67s-1.18-2.67-2.67-2.67h-.44ZM9.77,10.8c-.22.66-.85,1.11-1.61,1.06-.8-.05-1.46-.72-1.5-1.52-.04-.93.68-1.68,1.6-1.68.71,0,1.29.44,1.51,1.07h-.97c-.29,0-.53.24-.53.53h0c0,.29.24.53.53.53h.97ZM13.12,9.73h-.75l-.39-1.07h1.62c-.24.31-.41.67-.48,1.07ZM15.68,11.87c-.82-.03-1.52-.73-1.54-1.56-.01-.51.21-.96.56-1.26l.33.91c.1.28.41.42.68.32h0c.28-.1.42-.41.32-.68l-.34-.92h0c.92-.03,1.65.68,1.65,1.6,0,.92-.74,1.63-1.67,1.6Z" fill="currentColor" stroke-width="0"/>
  <path d="M15.3,7.59l-.91-2.5c-.15-.42-.56-.71-1-.71h-.85c-.29,0-.53.24-.53.53h0c0,.29.24.53.53.53h.85l.78,2.14h-2.57l-.19-.53h.05c.29,0,.53-.24.53-.53h0c0-.29-.24-.53-.53-.53h-1.59c-.29,0-.53.24-.53.53h0c0,.29.24.53.53.53h.4l.97,2.67h-.36c-.24-1.19-1.23-2.07-2.48-2.13-1.5-.07-2.8,1.17-2.8,2.67s1.18,2.67,2.67,2.67c1.31,0,2.38-.9,2.62-2.14h2.24c.24,1.19,1.23,2.07,2.48,2.13,1.5.07,2.8-1.17,2.8-2.67s-1.18-2.67-2.67-2.67h-.44ZM9.77,10.8c-.22.66-.85,1.11-1.61,1.06-.8-.05-1.46-.72-1.5-1.52-.04-.93.68-1.68,1.6-1.68.71,0,1.29.44,1.51,1.07h-.97c-.29,0-.53.24-.53.53h0c0,.29.24.53.53.53h.97ZM13.12,9.73h-.75l-.39-1.07h1.62c-.24.31-.41.67-.48,1.07ZM15.68,11.87c-.82-.03-1.52-.73-1.54-1.56-.01-.51.21-.96.56-1.26l.33.91c.1.28.41.42.68.32h0c.28-.1.42-.41.32-.68l-.34-.92h0c.92-.03,1.65.68,1.65,1.6,0,.92-.74,1.63-1.67,1.6Z" fill="#fff" opacity=".7" stroke-width="0"/>
</svg>