<?xml version="1.0" encoding="UTF-8"?>
<svg id="e" data-name="Livello 5" xmlns="http://www.w3.org/2000/svg" viewBox="0 0 24 24">
  <path d="M19,5h-2v-1c0-.55-.45-1-1-1h-8c-.55,0-1,.45-1,1v1h-2c-1.1,0-2,.9-2,2v1c0,2.55,1.92,4.63,4.39,4.94.63,1.5,1.98,2.63,3.61,2.96v3.1h-3c-.55,0-1,.45-1,1h0c0,.55.45,1,1,1h8c.55,0,1-.45,1-1h0c0-.55-.45-1-1-1h-3v-3.1c1.63-.33,2.98-1.46,3.61-2.96,2.47-.31,4.39-2.39,4.39-4.94v-1c0-1.1-.9-2-2-2ZM5,8v-1h2v3.82c-1.16-.42-2-1.52-2-2.82ZM19,8c0,1.3-.84,2.4-2,2.82v-3.82h2v1Z" fill="currentColor" stroke-width="0"/>
  <path d="M12,6.72c-1.49,0-2.69,1.21-2.69,2.69s1.21,2.69,2.69,2.69,2.69-1.21,2.69-2.69-1.21-2.69-2.69-2.69h0ZM6.61,9.95h1.08c.3,0,.54-.24.54-.54s-.24-.54-.54-.54h-1.08c-.3,0-.54.24-.54.54s.24.54.54.54ZM16.31,9.95h1.08c.3,0,.54-.24.54-.54s-.24-.54-.54-.54h-1.08c-.3,0-.54.24-.54.54s.24.54.54.54ZM11.46,4.02v1.08c0,.3.24.54.54.54s.54-.24.54-.54v-1.08c0-.3-.24-.54-.54-.54s-.54.24-.54.54ZM11.46,13.72v1.08c0,.3.24.54.54.54s.54-.24.54-.54v-1.08c0-.3-.24-.54-.54-.54s-.54.24-.54.54ZM8.76,5.41c-.21-.21-.55-.21-.76,0-.21.21-.21.55,0,.76l.57.57c.21.21.55.21.76,0s.21-.55,0-.76l-.57-.57ZM15.43,12.08c-.21-.21-.55-.21-.76,0-.21.21-.21.55,0,.76l.57.57c.21.21.55.21.76,0,.21-.21.21-.55,0-.76l-.57-.57ZM16,6.17c.21-.21.21-.55,0-.76-.21-.21-.55-.21-.76,0l-.57.57c-.21.21-.21.55,0,.76s.55.21.76,0l.57-.57ZM9.33,12.84c.21-.21.21-.55,0-.76-.21-.21-.55-.21-.76,0l-.57.57c-.21.21-.21.55,0,.76s.55.21.76,0l.57-.57Z" fill="currentColor" stroke-width="0"/>
  <path d="M12,6.72c-1.49,0-2.69,1.21-2.69,2.69s1.21,2.69,2.69,2.69,2.69-1.21,2.69-2.69-1.21-2.69-2.69-2.69h0ZM6.61,9.95h1.08c.3,0,.54-.24.54-.54s-.24-.54-.54-.54h-1.08c-.3,0-.54.24-.54.54s.24.54.54.54ZM16.31,9.95h1.08c.3,0,.54-.24.54-.54s-.24-.54-.54-.54h-1.08c-.3,0-.54.24-.54.54s.24.54.54.54ZM11.46,4.02v1.08c0,.3.24.54.54.54s.54-.24.54-.54v-1.08c0-.3-.24-.54-.54-.54s-.54.24-.54.54ZM11.46,13.72v1.08c0,.3.24.54.54.54s.54-.24.54-.54v-1.08c0-.3-.24-.54-.54-.54s-.54.24-.54.54ZM8.76,5.41c-.21-.21-.55-.21-.76,0-.21.21-.21.55,0,.76l.57.57c.21.21.55.21.76,0s.21-.55,0-.76l-.57-.57ZM15.43,12.08c-.21-.21-.55-.21-.76,0-.21.21-.21.55,0,.76l.57.57c.21.21.55.21.76,0,.21-.21.21-.55,0-.76l-.57-.57ZM16,6.17c.21-.21.21-.55,0-.76-.21-.21-.55-.21-.76,0l-.57.57c-.21.21-.21.55,0,.76s.55.21.76,0l.57-.57ZM9.33,12.84c.21-.21.21-.55,0-.76-.21-.21-.55-.21-.76,0l-.57.57c-.21.21-.21.55,0,.76s.55.21.76,0l.57-.57Z" fill="#000" opacity=".4" stroke-width="0"/>
  <path d="M12,6.22c-1.49,0-2.69,1.21-2.69,2.69s1.21,2.69,2.69,2.69,2.69-1.21,2.69-2.69-1.21-2.69-2.69-2.69h0ZM6.61,9.45h1.08c.3,0,.54-.24.54-.54s-.24-.54-.54-.54h-1.08c-.3,0-.54.24-.54.54s.24.54.54.54ZM16.31,9.45h1.08c.3,0,.54-.24.54-.54s-.24-.54-.54-.54h-1.08c-.3,0-.54.24-.54.54s.24.54.54.54ZM11.46,3.52v1.08c0,.3.24.54.54.54s.54-.24.54-.54v-1.08c0-.3-.24-.54-.54-.54s-.54.24-.54.54ZM11.46,13.22v1.08c0,.3.24.54.54.54s.54-.24.54-.54v-1.08c0-.3-.24-.54-.54-.54s-.54.24-.54.54ZM8.76,4.91c-.21-.21-.55-.21-.76,0-.21.21-.21.55,0,.76l.57.57c.21.21.55.21.76,0s.21-.55,0-.76l-.57-.57ZM15.43,11.58c-.21-.21-.55-.21-.76,0-.21.21-.21.55,0,.76l.57.57c.21.21.55.21.76,0,.21-.21.21-.55,0-.76l-.57-.57ZM16,5.67c.21-.21.21-.55,0-.76-.21-.21-.55-.21-.76,0l-.57.57c-.21.21-.21.55,0,.76s.55.21.76,0l.57-.57ZM9.33,12.34c.21-.21.21-.55,0-.76-.21-.21-.55-.21-.76,0l-.57.57c-.21.21-.21.55,0,.76s.55.21.76,0l.57-.57Z" fill="currentColor" stroke-width="0"/>
  <path d="M12,6.22c-1.49,0-2.69,1.21-2.69,2.69s1.21,2.69,2.69,2.69,2.69-1.21,2.69-2.69-1.21-2.69-2.69-2.69h0ZM6.61,9.45h1.08c.3,0,.54-.24.54-.54s-.24-.54-.54-.54h-1.08c-.3,0-.54.24-.54.54s.24.54.54.54ZM16.31,9.45h1.08c.3,0,.54-.24.54-.54s-.24-.54-.54-.54h-1.08c-.3,0-.54.24-.54.54s.24.54.54.54ZM11.46,3.52v1.08c0,.3.24.54.54.54s.54-.24.54-.54v-1.08c0-.3-.24-.54-.54-.54s-.54.24-.54.54ZM11.46,13.22v1.08c0,.3.24.54.54.54s.54-.24.54-.54v-1.08c0-.3-.24-.54-.54-.54s-.54.24-.54.54ZM8.76,4.91c-.21-.21-.55-.21-.76,0-.21.21-.21.55,0,.76l.57.57c.21.21.55.21.76,0s.21-.55,0-.76l-.57-.57ZM15.43,11.58c-.21-.21-.55-.21-.76,0-.21.21-.21.55,0,.76l.57.57c.21.21.55.21.76,0,.21-.21.21-.55,0-.76l-.57-.57ZM16,5.67c.21-.21.21-.55,0-.76-.21-.21-.55-.21-.76,0l-.57.57c-.21.21-.21.55,0,.76s.55.21.76,0l.57-.57ZM9.33,12.34c.21-.21.21-.55,0-.76-.21-.21-.55-.21-.76,0l-.57.57c-.21.21-.21.55,0,.76s.55.21.76,0l.57-.57Z" fill="#fff" opacity=".7" stroke-width="0"/>
</svg>