<?xml version="1.0" encoding="UTF-8"?>
<svg id="w" data-name="Livello 23" xmlns="http://www.w3.org/2000/svg" viewBox="0 0 24 24">
  <path d="M19,5h-2v-1c0-.55-.45-1-1-1h-8c-.55,0-1,.45-1,1v1h-2c-1.1,0-2,.9-2,2v1c0,2.55,1.92,4.63,4.39,4.94.63,1.5,1.98,2.63,3.61,2.96v3.1h-3c-.55,0-1,.45-1,1h0c0,.55.45,1,1,1h8c.55,0,1-.45,1-1h0c0-.55-.45-1-1-1h-3v-3.1c1.63-.33,2.98-1.46,3.61-2.96,2.47-.31,4.39-2.39,4.39-4.94v-1c0-1.1-.9-2-2-2ZM5,8v-1h2v3.82c-1.16-.42-2-1.52-2-2.82ZM19,8c0,1.3-.84,2.4-2,2.82v-3.82h2v1Z" fill="currentColor" stroke-width="0"/>
  <g>
    <path d="M15.3,8v-.42s-.02-.04-.04-.04h-.42s-.04.02-.04.04v1.18s-.02.04-.04.04h-2.96s-.04-.02-.04-.04v-1.18s-.02-.04-.04-.04h-.42s-.04.02-.04.04v.42s-.02.04-.04.04h-.42s-.04.02-.04.04v.67s-.02.04-.04.04h-.42s-.04.02-.04.04v.42s.02.04.04.04h.42s.04.02.04.04v.67s.02.04.04.04h.42s.04.02.04.04v.42s.02.04.04.04h.42s.04-.02.04-.04v-1.18s.02-.04.04-.04h2.96s.04.02.04.04v1.18s.02.04.04.04h.42s.04-.02.04-.04v-.42s.02-.04.04-.04h.42s.04-.02.04-.04v-.67s.02-.04.04-.04h.42s.04-.02.04-.04v-.42s-.02-.04-.04-.04h-.42s-.04-.02-.04-.04v-.67s-.02-.04-.04-.04h-.42s-.04-.02-.04-.04Z" fill="currentColor" stroke-width="0"/>
    <rect x="6.86" y="12.32" width="10.28" height="1.26" rx=".63" ry=".63" fill="currentColor" stroke-width="0"/>
    <rect x="7.93" y="6.44" width="1.1" height="6.52" rx=".55" ry=".55" transform="translate(3.01 -1.97) rotate(16.04)" fill="currentColor" stroke-width="0"/>
    <rect x="8.71" y="5.95" width="3.6" height=".98" rx=".49" ry=".49" fill="currentColor" stroke-width="0"/>
    <rect x="7.74" y="4.1" width="1.4" height="3.02" rx=".7" ry=".7" transform="translate(-1.49 7.61) rotate(-45)" fill="currentColor" stroke-width="0"/>
    <rect x="7.77" y="11.57" width="9.24" height=".9" rx=".45" ry=".45" fill="currentColor" stroke-width="0"/>
  </g>
  <g opacity=".4">
    <path d="M15.3,8v-.42s-.02-.04-.04-.04h-.42s-.04.02-.04.04v1.18s-.02.04-.04.04h-2.96s-.04-.02-.04-.04v-1.18s-.02-.04-.04-.04h-.42s-.04.02-.04.04v.42s-.02.04-.04.04h-.42s-.04.02-.04.04v.67s-.02.04-.04.04h-.42s-.04.02-.04.04v.42s.02.04.04.04h.42s.04.02.04.04v.67s.02.04.04.04h.42s.04.02.04.04v.42s.02.04.04.04h.42s.04-.02.04-.04v-1.18s.02-.04.04-.04h2.96s.04.02.04.04v1.18s.02.04.04.04h.42s.04-.02.04-.04v-.42s.02-.04.04-.04h.42s.04-.02.04-.04v-.67s.02-.04.04-.04h.42s.04-.02.04-.04v-.42s-.02-.04-.04-.04h-.42s-.04-.02-.04-.04v-.67s-.02-.04-.04-.04h-.42s-.04-.02-.04-.04Z" fill="#000" stroke-width="0"/>
    <rect x="6.86" y="12.32" width="10.28" height="1.26" rx=".63" ry=".63" fill="#000" stroke-width="0"/>
    <rect x="7.93" y="6.44" width="1.1" height="6.52" rx=".55" ry=".55" transform="translate(3.01 -1.97) rotate(16.04)" fill="#000" stroke-width="0"/>
    <rect x="8.71" y="5.95" width="3.6" height=".98" rx=".49" ry=".49" fill="#000" stroke-width="0"/>
    <rect x="7.74" y="4.1" width="1.4" height="3.02" rx=".7" ry=".7" transform="translate(-1.49 7.61) rotate(-45)" fill="#000" stroke-width="0"/>
    <rect x="7.77" y="11.57" width="9.24" height=".9" rx=".45" ry=".45" fill="#000" stroke-width="0"/>
  </g>
  <g>
    <path d="M15.3,7.5v-.42s-.02-.04-.04-.04h-.42s-.04.02-.04.04v1.18s-.02.04-.04.04h-2.96s-.04-.02-.04-.04v-1.18s-.02-.04-.04-.04h-.42s-.04.02-.04.04v.42s-.02.04-.04.04h-.42s-.04.02-.04.04v.67s-.02.04-.04.04h-.42s-.04.02-.04.04v.42s.02.04.04.04h.42s.04.02.04.04v.67s.02.04.04.04h.42s.04.02.04.04v.42s.02.04.04.04h.42s.04-.02.04-.04v-1.18s.02-.04.04-.04h2.96s.04.02.04.04v1.18s.02.04.04.04h.42s.04-.02.04-.04v-.42s.02-.04.04-.04h.42s.04-.02.04-.04v-.67s.02-.04.04-.04h.42s.04-.02.04-.04v-.42s-.02-.04-.04-.04h-.42s-.04-.02-.04-.04v-.67s-.02-.04-.04-.04h-.42s-.04-.02-.04-.04Z" fill="currentColor" stroke-width="0"/>
    <rect x="6.86" y="11.82" width="10.28" height="1.26" rx=".63" ry=".63" fill="currentColor" stroke-width="0"/>
    <rect x="7.93" y="5.94" width="1.1" height="6.52" rx=".55" ry=".55" transform="translate(2.87 -1.99) rotate(16.04)" fill="currentColor" stroke-width="0"/>
    <rect x="8.71" y="5.45" width="3.6" height=".98" rx=".49" ry=".49" fill="currentColor" stroke-width="0"/>
    <rect x="7.74" y="3.6" width="1.4" height="3.02" rx=".7" ry=".7" transform="translate(-1.14 7.46) rotate(-45)" fill="currentColor" stroke-width="0"/>
    <rect x="7.77" y="11.07" width="9.24" height=".9" rx=".45" ry=".45" fill="currentColor" stroke-width="0"/>
  </g>
  <g opacity=".7">
    <path d="M15.3,7.5v-.42s-.02-.04-.04-.04h-.42s-.04.02-.04.04v1.18s-.02.04-.04.04h-2.96s-.04-.02-.04-.04v-1.18s-.02-.04-.04-.04h-.42s-.04.02-.04.04v.42s-.02.04-.04.04h-.42s-.04.02-.04.04v.67s-.02.04-.04.04h-.42s-.04.02-.04.04v.42s.02.04.04.04h.42s.04.02.04.04v.67s.02.04.04.04h.42s.04.02.04.04v.42s.02.04.04.04h.42s.04-.02.04-.04v-1.18s.02-.04.04-.04h2.96s.04.02.04.04v1.18s.02.04.04.04h.42s.04-.02.04-.04v-.42s.02-.04.04-.04h.42s.04-.02.04-.04v-.67s.02-.04.04-.04h.42s.04-.02.04-.04v-.42s-.02-.04-.04-.04h-.42s-.04-.02-.04-.04v-.67s-.02-.04-.04-.04h-.42s-.04-.02-.04-.04Z" fill="#fff" stroke-width="0"/>
    <rect x="6.86" y="11.82" width="10.28" height="1.26" rx=".63" ry=".63" fill="#fff" stroke-width="0"/>
    <rect x="7.93" y="5.94" width="1.1" height="6.52" rx=".55" ry=".55" transform="translate(2.87 -1.99) rotate(16.04)" fill="#fff" stroke-width="0"/>
    <rect x="8.71" y="5.45" width="3.6" height=".98" rx=".49" ry=".49" fill="#fff" stroke-width="0"/>
    <rect x="7.74" y="3.6" width="1.4" height="3.02" rx=".7" ry=".7" transform="translate(-1.14 7.46) rotate(-45)" fill="#fff" stroke-width="0"/>
    <rect x="7.77" y="11.07" width="9.24" height=".9" rx=".45" ry=".45" fill="#fff" stroke-width="0"/>
  </g>
</svg>