<?xml version="1.0" encoding="UTF-8"?>
<svg id="b" data-name="Livello 2" xmlns="http://www.w3.org/2000/svg" viewBox="0 0 24 24">
  <path d="M19,5h-2v-1c0-.55-.45-1-1-1h-8c-.55,0-1,.45-1,1v1h-2c-1.1,0-2,.9-2,2v1c0,2.55,1.92,4.63,4.39,4.94.63,1.5,1.98,2.63,3.61,2.96v3.1h-3c-.55,0-1,.45-1,1h0c0,.55.45,1,1,1h8c.55,0,1-.45,1-1h0c0-.55-.45-1-1-1h-3v-3.1c1.63-.33,2.98-1.46,3.61-2.96,2.47-.31,4.39-2.39,4.39-4.94v-1c0-1.1-.9-2-2-2ZM5,8v-1h2v3.82c-1.16-.42-2-1.52-2-2.82ZM19,8c0,1.3-.84,2.4-2,2.82v-3.82h2v1Z" fill="currentColor" stroke-width="0"/>
  <g>
    <g>
      <path d="M7.7,9.21h-.88v1.26h.63l-.32,1.61h.88c.24,0,.44-.17.49-.4l.24-1.21h1.01l-.32,1.61h.89c.24,0,.45-.17.49-.4l.16-.81c.05-.23.25-.4.49-.4h.96v-1.26h-1.12l.23-1.16h.89v-1.26h-.63l.33-1.64h-.89c-.24,0-.44.17-.49.4l-.25,1.24h-1l.33-1.64h-.89c-.24,0-.44.17-.49.4l-.17.83c-.05.23-.25.4-.49.4h-.96v1.26h1.12l-.23,1.16ZM9,9.21l.23-1.16h1.01l-.23,1.16h-1.01Z" fill="currentColor" stroke-width="0"/>
      <path d="M16.84,5.14h-.75c-.18,0-.34.1-.43.26-.18.31-.41.58-.69.8s-.67.44-1.14.62c-.2.07-.34.26-.34.47v1.18s0,0,0,0c.43-.13.78-.27,1.07-.41s.58-.33.89-.56v4.09c0,.28.22.5.5.5h.88c.28,0,.5-.22.5-.5v-5.94c0-.28-.22-.5-.5-.5Z" fill="currentColor" stroke-width="0"/>
    </g>
    <g opacity=".4">
      <path d="M7.7,9.21h-.88v1.26h.63l-.32,1.61h.88c.24,0,.44-.17.49-.4l.24-1.21h1.01l-.32,1.61h.89c.24,0,.45-.17.49-.4l.16-.81c.05-.23.25-.4.49-.4h.96v-1.26h-1.12l.23-1.16h.89v-1.26h-.63l.33-1.64h-.89c-.24,0-.44.17-.49.4l-.25,1.24h-1l.33-1.64h-.89c-.24,0-.44.17-.49.4l-.17.83c-.05.23-.25.4-.49.4h-.96v1.26h1.12l-.23,1.16ZM9,9.21l.23-1.16h1.01l-.23,1.16h-1.01Z" fill="#000" stroke-width="0"/>
      <path d="M16.84,5.14h-.75c-.18,0-.34.1-.43.26-.18.31-.41.58-.69.8s-.67.44-1.14.62c-.2.07-.34.26-.34.47v1.18s0,0,0,0c.43-.13.78-.27,1.07-.41s.58-.33.89-.56v4.09c0,.28.22.5.5.5h.88c.28,0,.5-.22.5-.5v-5.94c0-.28-.22-.5-.5-.5Z" fill="#000" stroke-width="0"/>
    </g>
  </g>
  <g>
    <g>
      <path d="M7.7,8.61h-.88v1.26h.63l-.32,1.61h.88c.24,0,.44-.17.49-.4l.24-1.21h1.01l-.32,1.61h.89c.24,0,.45-.17.49-.4l.16-.81c.05-.23.25-.4.49-.4h.96v-1.26h-1.12l.23-1.16h.89v-1.26h-.63l.33-1.64h-.89c-.24,0-.44.17-.49.4l-.25,1.24h-1l.33-1.64h-.89c-.24,0-.44.17-.49.4l-.17.83c-.05.23-.25.4-.49.4h-.96v1.26h1.12l-.23,1.16ZM9,8.61l.23-1.16h1.01l-.23,1.16h-1.01Z" fill="currentColor" stroke-width="0"/>
      <path d="M16.84,4.55h-.75c-.18,0-.34.1-.43.26-.18.31-.41.58-.69.8s-.67.44-1.14.62c-.2.07-.34.26-.34.47v1.18s0,0,0,0c.43-.13.78-.27,1.07-.41s.58-.33.89-.56v4.09c0,.28.22.5.5.5h.88c.28,0,.5-.22.5-.5v-5.94c0-.28-.22-.5-.5-.5Z" fill="currentColor" stroke-width="0"/>
    </g>
    <g opacity=".7">
      <path d="M7.7,8.61h-.88v1.26h.63l-.32,1.61h.88c.24,0,.44-.17.49-.4l.24-1.21h1.01l-.32,1.61h.89c.24,0,.45-.17.49-.4l.16-.81c.05-.23.25-.4.49-.4h.96v-1.26h-1.12l.23-1.16h.89v-1.26h-.63l.33-1.64h-.89c-.24,0-.44.17-.49.4l-.25,1.24h-1l.33-1.64h-.89c-.24,0-.44.17-.49.4l-.17.83c-.05.23-.25.4-.49.4h-.96v1.26h1.12l-.23,1.16ZM9,8.61l.23-1.16h1.01l-.23,1.16h-1.01Z" fill="#fff" stroke-width="0"/>
      <path d="M16.84,4.55h-.75c-.18,0-.34.1-.43.26-.18.31-.41.58-.69.8s-.67.44-1.14.62c-.2.07-.34.26-.34.47v1.18s0,0,0,0c.43-.13.78-.27,1.07-.41s.58-.33.89-.56v4.09c0,.28.22.5.5.5h.88c.28,0,.5-.22.5-.5v-5.94c0-.28-.22-.5-.5-.5Z" fill="#fff" stroke-width="0"/>
    </g>
  </g>
</svg>