<?xml version="1.0" encoding="UTF-8"?>
<svg id="c" data-name="Livello 3" xmlns="http://www.w3.org/2000/svg" viewBox="0 0 24 24">
  <path d="M19,5h-2v-1c0-.55-.45-1-1-1h-8c-.55,0-1,.45-1,1v1h-2c-1.1,0-2,.9-2,2v1c0,2.55,1.92,4.63,4.39,4.94.63,1.5,1.98,2.63,3.61,2.96v3.1h-3c-.55,0-1,.45-1,1h0c0,.55.45,1,1,1h8c.55,0,1-.45,1-1h0c0-.55-.45-1-1-1h-3v-3.1c1.63-.33,2.98-1.46,3.61-2.96,2.47-.31,4.39-2.39,4.39-4.94v-1c0-1.1-.9-2-2-2ZM5,8v-1h2v3.82c-1.16-.42-2-1.52-2-2.82ZM19,8c0,1.3-.84,2.4-2,2.82v-3.82h2v1Z" fill="currentColor" stroke-width="0"/>
  <path d="M9.75,9.89l1.63-1.63-3.58-3.57c-.28-.28-.76-.2-.93.16-.41.86-.26,1.92.45,2.63l2.42,2.41ZM13.66,8.84c.88.41,2.13.12,3.04-.8,1.1-1.1,1.32-2.69.47-3.54-.84-.84-2.43-.64-3.54.47-.92.92-1.21,2.16-.8,3.04l-5.23,5.23c-.23.23-.23.59,0,.81s.59.23.81,0l3.58-3.56,3.57,3.57c.23.23.59.23.81,0s.23-.59,0-.81l-3.57-3.57s.85-.85.85-.85Z" fill="currentColor" stroke-width="0"/>
  <path d="M9.75,9.89l1.63-1.63-3.58-3.57c-.28-.28-.76-.2-.93.16-.41.86-.26,1.92.45,2.63l2.42,2.41ZM13.66,8.84c.88.41,2.13.12,3.04-.8,1.1-1.1,1.32-2.69.47-3.54-.84-.84-2.43-.64-3.54.47-.92.92-1.21,2.16-.8,3.04l-5.23,5.23c-.23.23-.23.59,0,.81s.59.23.81,0l3.58-3.56,3.57,3.57c.23.23.59.23.81,0s.23-.59,0-.81l-3.57-3.57s.85-.85.85-.85Z" fill="#000" opacity=".4" stroke-width="0"/>
  <path d="M9.75,9.39l1.63-1.63-3.58-3.57c-.28-.28-.76-.2-.93.16-.41.86-.26,1.92.45,2.63l2.42,2.41ZM13.66,8.34c.88.41,2.13.12,3.04-.8,1.1-1.1,1.32-2.69.47-3.54-.84-.84-2.43-.64-3.54.47-.92.92-1.21,2.16-.8,3.04l-5.23,5.23c-.23.23-.23.59,0,.81s.59.23.81,0l3.58-3.56,3.57,3.57c.23.23.59.23.81,0s.23-.59,0-.81l-3.57-3.57s.85-.85.85-.85Z" fill="currentColor" stroke-width="0"/>
  <path d="M9.75,9.39l1.63-1.63-3.58-3.57c-.28-.28-.76-.2-.93.16-.41.86-.26,1.92.45,2.63l2.42,2.41ZM13.66,8.34c.88.41,2.13.12,3.04-.8,1.1-1.1,1.32-2.69.47-3.54-.84-.84-2.43-.64-3.54.47-.92.92-1.21,2.16-.8,3.04l-5.23,5.23c-.23.23-.23.59,0,.81s.59.23.81,0l3.58-3.56,3.57,3.57c.23.23.59.23.81,0s.23-.59,0-.81l-3.57-3.57s.85-.85.85-.85Z" fill="#fff" opacity=".7" stroke-width="0"/>
</svg>