<?xml version="1.0" encoding="UTF-8"?>
<svg id="o" data-name="Livello 15" xmlns="http://www.w3.org/2000/svg" viewBox="0 0 24 24">
  <path d="M19,5h-2v-1c0-.55-.45-1-1-1h-8c-.55,0-1,.45-1,1v1h-2c-1.1,0-2,.9-2,2v1c0,2.55,1.92,4.63,4.39,4.94.63,1.5,1.98,2.63,3.61,2.96v3.1h-3c-.55,0-1,.45-1,1h0c0,.55.45,1,1,1h8c.55,0,1-.45,1-1h0c0-.55-.45-1-1-1h-3v-3.1c1.63-.33,2.98-1.46,3.61-2.96,2.47-.31,4.39-2.39,4.39-4.94v-1c0-1.1-.9-2-2-2ZM5,8v-1h2v3.82c-1.16-.42-2-1.52-2-2.82ZM19,8c0,1.3-.84,2.4-2,2.82v-3.82h2v1Z" fill="currentColor" stroke-width="0"/>
  <path d="M7.22,12.02c0,.29.24.53.53.53h2.65v-1.06h-2.65c-.29,0-.53.24-.53.53ZM7.22,5.65c0,.29.24.53.53.53h4.78v-1.06h-4.78c-.29,0-.53.24-.53.53ZM12.53,13.08v-.53h3.72c.29,0,.53-.24.53-.53s-.24-.53-.53-.53h-3.72v-.53c0-.29-.24-.53-.53-.53s-.53.24-.53.53v2.12c0,.29.24.53.53.53s.53-.24.53-.53ZM9.34,7.77v.53h-1.59c-.29,0-.53.24-.53.53s.24.53.53.53h1.59v.53c0,.29.24.53.53.53s.53-.24.53-.53v-2.12c0-.29-.24-.53-.53-.53s-.53.24-.53.53ZM16.78,8.83c0-.29-.24-.53-.53-.53h-4.78v1.06h4.78c.29,0,.53-.24.53-.53ZM14.12,7.24c.29,0,.53-.24.53-.53v-.53h1.59c.29,0,.53-.24.53-.53s-.24-.53-.53-.53h-1.59v-.53c0-.29-.24-.53-.53-.53s-.53.24-.53.53v2.12c0,.29.24.53.53.53Z" fill="currentColor" stroke-width="0"/>
  <path d="M7.22,12.02c0,.29.24.53.53.53h2.65v-1.06h-2.65c-.29,0-.53.24-.53.53ZM7.22,5.65c0,.29.24.53.53.53h4.78v-1.06h-4.78c-.29,0-.53.24-.53.53ZM12.53,13.08v-.53h3.72c.29,0,.53-.24.53-.53s-.24-.53-.53-.53h-3.72v-.53c0-.29-.24-.53-.53-.53s-.53.24-.53.53v2.12c0,.29.24.53.53.53s.53-.24.53-.53ZM9.34,7.77v.53h-1.59c-.29,0-.53.24-.53.53s.24.53.53.53h1.59v.53c0,.29.24.53.53.53s.53-.24.53-.53v-2.12c0-.29-.24-.53-.53-.53s-.53.24-.53.53ZM16.78,8.83c0-.29-.24-.53-.53-.53h-4.78v1.06h4.78c.29,0,.53-.24.53-.53ZM14.12,7.24c.29,0,.53-.24.53-.53v-.53h1.59c.29,0,.53-.24.53-.53s-.24-.53-.53-.53h-1.59v-.53c0-.29-.24-.53-.53-.53s-.53.24-.53.53v2.12c0,.29.24.53.53.53Z" fill="#000" opacity=".4" stroke-width="0"/>
  <path d="M7.22,11.52c0,.29.24.53.53.53h2.65v-1.06h-2.65c-.29,0-.53.24-.53.53ZM7.22,5.15c0,.29.24.53.53.53h4.78v-1.06h-4.78c-.29,0-.53.24-.53.53ZM12.53,12.58v-.53h3.72c.29,0,.53-.24.53-.53s-.24-.53-.53-.53h-3.72v-.53c0-.29-.24-.53-.53-.53s-.53.24-.53.53v2.12c0,.29.24.53.53.53s.53-.24.53-.53ZM9.34,7.27v.53h-1.59c-.29,0-.53.24-.53.53s.24.53.53.53h1.59v.53c0,.29.24.53.53.53s.53-.24.53-.53v-2.12c0-.29-.24-.53-.53-.53s-.53.24-.53.53ZM16.78,8.33c0-.29-.24-.53-.53-.53h-4.78v1.06h4.78c.29,0,.53-.24.53-.53ZM14.12,6.74c.29,0,.53-.24.53-.53v-.53h1.59c.29,0,.53-.24.53-.53s-.24-.53-.53-.53h-1.59v-.53c0-.29-.24-.53-.53-.53s-.53.24-.53.53v2.12c0,.29.24.53.53.53Z" fill="currentColor" stroke-width="0"/>
  <path d="M7.22,11.52c0,.29.24.53.53.53h2.65v-1.06h-2.65c-.29,0-.53.24-.53.53ZM7.22,5.15c0,.29.24.53.53.53h4.78v-1.06h-4.78c-.29,0-.53.24-.53.53ZM12.53,12.58v-.53h3.72c.29,0,.53-.24.53-.53s-.24-.53-.53-.53h-3.72v-.53c0-.29-.24-.53-.53-.53s-.53.24-.53.53v2.12c0,.29.24.53.53.53s.53-.24.53-.53ZM9.34,7.27v.53h-1.59c-.29,0-.53.24-.53.53s.24.53.53.53h1.59v.53c0,.29.24.53.53.53s.53-.24.53-.53v-2.12c0-.29-.24-.53-.53-.53s-.53.24-.53.53ZM16.78,8.33c0-.29-.24-.53-.53-.53h-4.78v1.06h4.78c.29,0,.53-.24.53-.53ZM14.12,6.74c.29,0,.53-.24.53-.53v-.53h1.59c.29,0,.53-.24.53-.53s-.24-.53-.53-.53h-1.59v-.53c0-.29-.24-.53-.53-.53s-.53.24-.53.53v2.12c0,.29.24.53.53.53Z" fill="#fff" opacity=".7" stroke-width="0"/>
</svg>