<?xml version="1.0" encoding="UTF-8"?>
<svg id="d" data-name="Livello 4" xmlns="http://www.w3.org/2000/svg" viewBox="0 0 24 24">
  <path d="M19,5h-2v-1c0-.55-.45-1-1-1h-8c-.55,0-1,.45-1,1v1h-2c-1.1,0-2,.9-2,2v1c0,2.55,1.92,4.63,4.39,4.94.63,1.5,1.98,2.63,3.61,2.96v3.1h-3c-.55,0-1,.45-1,1h0c0,.55.45,1,1,1h8c.55,0,1-.45,1-1h0c0-.55-.45-1-1-1h-3v-3.1c1.63-.33,2.98-1.46,3.61-2.96,2.47-.31,4.39-2.39,4.39-4.94v-1c0-1.1-.9-2-2-2ZM5,8v-1h2v3.82c-1.16-.42-2-1.52-2-2.82ZM19,8c0,1.3-.84,2.4-2,2.82v-3.82h2v1Z" fill="currentColor" stroke-width="0"/>
  <path d="M13.35,5.92c.71,0,1.29-.58,1.29-1.29s-.58-1.29-1.29-1.29-1.29.58-1.29,1.29.58,1.29,1.29,1.29ZM11.31,13.63l.37-1.61,1.35,1.29v3.21c0,.35.29.64.64.64s.64-.29.64-.64v-3.62c0-.35-.14-.69-.4-.93l-.95-.91.39-1.93c.69.8,1.68,1.37,2.8,1.55.39.06.73-.25.73-.64,0-.31-.23-.58-.55-.63-.98-.16-1.79-.74-2.22-1.5l-.64-1.03c-.26-.39-.64-.64-1.09-.64-.19,0-.32.06-.51.06l-2.56,1.08c-.48.21-.78.67-.78,1.19v1.52c0,.35.29.64.64.64s.64-.29.64-.64v-1.54l1.16-.45-1.03,5.21-2.52-.51c-.35-.07-.69.15-.76.5v.03c-.07.35.15.69.5.76l2.64.53c.68.13,1.35-.3,1.5-.98Z" fill="currentColor" stroke-width="0"/>
  <path d="M13.35,5.92c.71,0,1.29-.58,1.29-1.29s-.58-1.29-1.29-1.29-1.29.58-1.29,1.29.58,1.29,1.29,1.29ZM11.31,13.63l.37-1.61,1.35,1.29v3.21c0,.35.29.64.64.64s.64-.29.64-.64v-3.62c0-.35-.14-.69-.4-.93l-.95-.91.39-1.93c.69.8,1.68,1.37,2.8,1.55.39.06.73-.25.73-.64,0-.31-.23-.58-.55-.63-.98-.16-1.79-.74-2.22-1.5l-.64-1.03c-.26-.39-.64-.64-1.09-.64-.19,0-.32.06-.51.06l-2.56,1.08c-.48.21-.78.67-.78,1.19v1.52c0,.35.29.64.64.64s.64-.29.64-.64v-1.54l1.16-.45-1.03,5.21-2.52-.51c-.35-.07-.69.15-.76.5v.03c-.07.35.15.69.5.76l2.64.53c.68.13,1.35-.3,1.5-.98Z" fill="#000" opacity=".4" stroke-width="0"/>
  <path d="M13.35,5.42c.71,0,1.29-.58,1.29-1.29s-.58-1.29-1.29-1.29-1.29.58-1.29,1.29.58,1.29,1.29,1.29ZM11.31,13.13l.37-1.61,1.35,1.29v3.21c0,.35.29.64.64.64s.64-.29.64-.64v-3.62c0-.35-.14-.69-.4-.93l-.95-.91.39-1.93c.69.8,1.68,1.37,2.8,1.55.39.06.73-.25.73-.64,0-.31-.23-.58-.55-.63-.98-.16-1.79-.74-2.22-1.5l-.64-1.03c-.26-.39-.64-.64-1.09-.64-.19,0-.32.06-.51.06l-2.56,1.08c-.48.21-.78.67-.78,1.19v1.52c0,.35.29.64.64.64s.64-.29.64-.64v-1.54l1.16-.45-1.03,5.21-2.52-.51c-.35-.07-.69.15-.76.5v.03c-.07.35.15.69.5.76l2.64.53c.68.13,1.35-.3,1.5-.98Z" fill="currentColor" stroke-width="0"/>
  <path d="M13.35,5.42c.71,0,1.29-.58,1.29-1.29s-.58-1.29-1.29-1.29-1.29.58-1.29,1.29.58,1.29,1.29,1.29ZM11.31,13.13l.37-1.61,1.35,1.29v3.21c0,.35.29.64.64.64s.64-.29.64-.64v-3.62c0-.35-.14-.69-.4-.93l-.95-.91.39-1.93c.69.8,1.68,1.37,2.8,1.55.39.06.73-.25.73-.64,0-.31-.23-.58-.55-.63-.98-.16-1.79-.74-2.22-1.5l-.64-1.03c-.26-.39-.64-.64-1.09-.64-.19,0-.32.06-.51.06l-2.56,1.08c-.48.21-.78.67-.78,1.19v1.52c0,.35.29.64.64.64s.64-.29.64-.64v-1.54l1.16-.45-1.03,5.21-2.52-.51c-.35-.07-.69.15-.76.5v.03c-.07.35.15.69.5.76l2.64.53c.68.13,1.35-.3,1.5-.98Z" fill="#fff" opacity=".7" stroke-width="0"/>
</svg>