<?xml version="1.0" encoding="UTF-8"?>
<svg id="v" data-name="Livello 22" xmlns="http://www.w3.org/2000/svg" viewBox="0 0 24 24">
  <path d="M19,5h-2v-1c0-.55-.45-1-1-1h-8c-.55,0-1,.45-1,1v1h-2c-1.1,0-2,.9-2,2v1c0,2.55,1.92,4.63,4.39,4.94.63,1.5,1.98,2.63,3.61,2.96v3.1h-3c-.55,0-1,.45-1,1h0c0,.55.45,1,1,1h8c.55,0,1-.45,1-1h0c0-.55-.45-1-1-1h-3v-3.1c1.63-.33,2.98-1.46,3.61-2.96,2.47-.31,4.39-2.39,4.39-4.94v-1c0-1.1-.9-2-2-2ZM5,8v-1h2v3.82c-1.16-.42-2-1.52-2-2.82ZM19,8c0,1.3-.84,2.4-2,2.82v-3.82h2v1Z" fill="currentColor" stroke-width="0"/>
  <g>
    <path d="M12,5.66c.51,0,1.01.1,1.48.3.45.19.86.46,1.21.81.35.35.62.75.81,1.21.2.47.3.96.3,1.48s-.1,1.01-.3,1.48c-.19.45-.46.86-.81,1.21-.35.35-.75.62-1.21.81-.47.2-.96.3-1.48.3s-1.01-.1-1.48-.3c-.45-.19-.86-.46-1.21-.81-.35-.35-.62-.75-.81-1.21-.2-.47-.3-.96-.3-1.48s.1-1.01.3-1.48c.19-.45.46-.86.81-1.21.35-.35.75-.62,1.21-.81.47-.2.96-.3,1.48-.3M12,4.76c-2.59,0-4.69,2.1-4.69,4.69s2.1,4.69,4.69,4.69,4.69-2.1,4.69-4.69-2.1-4.69-4.69-4.69h0Z" fill="currentColor" stroke-width="0"/>
    <g>
      <path d="M11.71,10.36s-.06-.06-.08-.09c.02.03.05.06.08.09Z" fill="currentColor" stroke-width="0"/>
      <path d="M12.25,10.39s.05-.03.07-.05c-.02.02-.04.04-.07.05Z" fill="currentColor" stroke-width="0"/>
      <path d="M12.32,10.34s.01-.02.02-.02c0,0-.01.02-.02.02Z" fill="currentColor" stroke-width="0"/>
    </g>
    <g>
      <path d="M14.45,7.64l-2.1,2.66s0,0,0,0c0,0,0,0,0,0,0,0-.01.02-.02.02-.02.02-.04.04-.07.05,0,0,0,0,0,0,0,0,0,0,0,0,0,0-.01,0-.02.01s-.01,0-.02,0c0,0,0,0,0,0,0,0,0,0,0,0-.01,0-.02,0-.03.01,0,0,0,0-.01,0,0,0,0,0-.01,0-.01,0-.02,0-.04,0h0s-.02,0-.02,0c0,0,0,0-.01,0,0,0-.02,0-.03,0,0,0-.02,0-.02,0h0s-.01,0-.02,0c0,0-.01,0-.02,0,0,0,0,0,0,0,0,0,0,0-.01,0,0,0-.01,0-.02,0,0,0,0,0,0,0,0,0,0,0-.01,0,0,0-.01,0-.02,0,0,0,0,0,0,0,0,0,0,0-.01,0,0,0,0,0,0,0,0,0-.01,0-.02,0,0,0,0,0,0,0,0,0-.01,0-.02,0,0,0,0,0,0,0,0,0-.01,0-.02,0,0,0-.02,0-.03-.01,0,0,0,0,0,0,0,0,0,0-.01,0,0,0-.01,0-.02-.01,0,0,0,0-.01,0,0,0-.02-.01-.03-.02,0,0,0,0,0,0-.03-.03-.06-.06-.08-.09,0,0,0,0,0,0,0,0,0,0,0,0,0,0,0-.01-.01-.02s0-.01,0-.02c0,0,0,0,0-.01,0,0,0,0,0,0,0,0,0,0,0-.01,0,0,0,0,0-.01,0,0,0,0,0-.01,0,0,0,0,0,0,0-.02,0-.03-.01-.05,0,0,0,0,0-.01,0,0,0,0,0-.01,0,0,0,0,0,0,0,0,0-.02,0-.03,0,0,0-.02,0-.02v-2.28c0-.25.2-.45.45-.45s.45.2.45.45v.99l1.3-1.65c.15-.19.44-.23.63-.07.19.15.23.44.07.63Z" fill="currentColor" stroke-width="0"/>
      <path d="M11.56,10.11s0,.03.01.05c0-.02,0-.03-.01-.05Z" fill="currentColor" stroke-width="0"/>
      <path d="M12.09,10.46s.02,0,.04,0c-.01,0-.02,0-.04,0Z" fill="currentColor" stroke-width="0"/>
    </g>
  </g>
  <g opacity=".4">
    <path d="M12,5.66c.51,0,1.01.1,1.48.3.45.19.86.46,1.21.81.35.35.62.75.81,1.21.2.47.3.96.3,1.48s-.1,1.01-.3,1.48c-.19.45-.46.86-.81,1.21-.35.35-.75.62-1.21.81-.47.2-.96.3-1.48.3s-1.01-.1-1.48-.3c-.45-.19-.86-.46-1.21-.81-.35-.35-.62-.75-.81-1.21-.2-.47-.3-.96-.3-1.48s.1-1.01.3-1.48c.19-.45.46-.86.81-1.21.35-.35.75-.62,1.21-.81.47-.2.96-.3,1.48-.3M12,4.76c-2.59,0-4.69,2.1-4.69,4.69s2.1,4.69,4.69,4.69,4.69-2.1,4.69-4.69-2.1-4.69-4.69-4.69h0Z" fill="#000" stroke-width="0"/>
    <g>
      <path d="M11.71,10.36s-.06-.06-.08-.09c.02.03.05.06.08.09Z" fill="#000" stroke-width="0"/>
      <path d="M12.25,10.39s.05-.03.07-.05c-.02.02-.04.04-.07.05Z" fill="#000" stroke-width="0"/>
      <path d="M12.32,10.34s.01-.02.02-.02c0,0-.01.02-.02.02Z" fill="#000" stroke-width="0"/>
    </g>
    <g>
      <path d="M14.45,7.64l-2.1,2.66s0,0,0,0c0,0,0,0,0,0,0,0-.01.02-.02.02-.02.02-.04.04-.07.05,0,0,0,0,0,0,0,0,0,0,0,0,0,0-.01,0-.02.01s-.01,0-.02,0c0,0,0,0,0,0,0,0,0,0,0,0-.01,0-.02,0-.03.01,0,0,0,0-.01,0,0,0,0,0-.01,0-.01,0-.02,0-.04,0h0s-.02,0-.02,0c0,0,0,0-.01,0,0,0-.02,0-.03,0,0,0-.02,0-.02,0h0s-.01,0-.02,0c0,0-.01,0-.02,0,0,0,0,0,0,0,0,0,0,0-.01,0,0,0-.01,0-.02,0,0,0,0,0,0,0,0,0,0,0-.01,0,0,0-.01,0-.02,0,0,0,0,0,0,0,0,0,0,0-.01,0,0,0,0,0,0,0,0,0-.01,0-.02,0,0,0,0,0,0,0,0,0-.01,0-.02,0,0,0,0,0,0,0,0,0-.01,0-.02,0,0,0-.02,0-.03-.01,0,0,0,0,0,0,0,0,0,0-.01,0,0,0-.01,0-.02-.01,0,0,0,0-.01,0,0,0-.02-.01-.03-.02,0,0,0,0,0,0-.03-.03-.06-.06-.08-.09,0,0,0,0,0,0,0,0,0,0,0,0,0,0,0-.01-.01-.02s0-.01,0-.02c0,0,0,0,0-.01,0,0,0,0,0,0,0,0,0,0,0-.01,0,0,0,0,0-.01,0,0,0,0,0-.01,0,0,0,0,0,0,0-.02,0-.03-.01-.05,0,0,0,0,0-.01,0,0,0,0,0-.01,0,0,0,0,0,0,0,0,0-.02,0-.03,0,0,0-.02,0-.02v-2.28c0-.25.2-.45.45-.45s.45.2.45.45v.99l1.3-1.65c.15-.19.44-.23.63-.07.19.15.23.44.07.63Z" fill="#000" stroke-width="0"/>
      <path d="M11.56,10.11s0,.03.01.05c0-.02,0-.03-.01-.05Z" fill="#000" stroke-width="0"/>
      <path d="M12.09,10.46s.02,0,.04,0c-.01,0-.02,0-.04,0Z" fill="#000" stroke-width="0"/>
    </g>
  </g>
  <g>
    <path d="M12,5.16c.51,0,1.01.1,1.48.3.45.19.86.46,1.21.81.35.35.62.75.81,1.21.2.47.3.96.3,1.48s-.1,1.01-.3,1.48c-.19.45-.46.86-.81,1.21-.35.35-.75.62-1.21.81-.47.2-.96.3-1.48.3s-1.01-.1-1.48-.3c-.45-.19-.86-.46-1.21-.81-.35-.35-.62-.75-.81-1.21-.2-.47-.3-.96-.3-1.48s.1-1.01.3-1.48c.19-.45.46-.86.81-1.21.35-.35.75-.62,1.21-.81.47-.2.96-.3,1.48-.3M12,4.26c-2.59,0-4.69,2.1-4.69,4.69s2.1,4.69,4.69,4.69,4.69-2.1,4.69-4.69-2.1-4.69-4.69-4.69h0Z" fill="currentColor" stroke-width="0"/>
    <g>
      <path d="M11.71,9.86s-.06-.06-.08-.09c.02.03.05.06.08.09Z" fill="currentColor" stroke-width="0"/>
      <path d="M12.25,9.89s.05-.03.07-.05c-.02.02-.04.04-.07.05Z" fill="currentColor" stroke-width="0"/>
      <path d="M12.32,9.84s.01-.02.02-.02c0,0-.01.02-.02.02Z" fill="currentColor" stroke-width="0"/>
    </g>
    <g>
      <path d="M14.45,7.14l-2.1,2.66s0,0,0,0c0,0,0,0,0,0,0,0-.01.02-.02.02-.02.02-.04.04-.07.05,0,0,0,0,0,0,0,0,0,0,0,0,0,0-.01,0-.02.01s-.01,0-.02,0c0,0,0,0,0,0,0,0,0,0,0,0-.01,0-.02,0-.03.01,0,0,0,0-.01,0,0,0,0,0-.01,0-.01,0-.02,0-.04,0h0s-.02,0-.02,0c0,0,0,0-.01,0,0,0-.02,0-.03,0,0,0-.02,0-.02,0h0s-.01,0-.02,0c0,0-.01,0-.02,0,0,0,0,0,0,0,0,0,0,0-.01,0,0,0-.01,0-.02,0,0,0,0,0,0,0,0,0,0,0-.01,0,0,0-.01,0-.02,0,0,0,0,0,0,0,0,0,0,0-.01,0,0,0,0,0,0,0,0,0-.01,0-.02,0,0,0,0,0,0,0,0,0-.01,0-.02,0,0,0,0,0,0,0,0,0-.01,0-.02,0,0,0-.02,0-.03-.01,0,0,0,0,0,0,0,0,0,0-.01,0,0,0-.01,0-.02-.01,0,0,0,0-.01,0,0,0-.02-.01-.03-.02,0,0,0,0,0,0-.03-.03-.06-.06-.08-.09,0,0,0,0,0,0,0,0,0,0,0,0,0,0,0-.01-.01-.02s0-.01,0-.02c0,0,0,0,0-.01,0,0,0,0,0,0,0,0,0,0,0-.01,0,0,0,0,0-.01,0,0,0,0,0-.01,0,0,0,0,0,0,0-.02,0-.03-.01-.05,0,0,0,0,0-.01,0,0,0,0,0-.01,0,0,0,0,0,0,0,0,0-.02,0-.03,0,0,0-.02,0-.02v-2.28c0-.25.2-.45.45-.45s.45.2.45.45v.99l1.3-1.65c.15-.19.44-.23.63-.07.19.15.23.44.07.63Z" fill="currentColor" stroke-width="0"/>
      <path d="M11.56,9.61s0,.03.01.05c0-.02,0-.03-.01-.05Z" fill="currentColor" stroke-width="0"/>
      <path d="M12.09,9.96s.02,0,.04,0c-.01,0-.02,0-.04,0Z" fill="currentColor" stroke-width="0"/>
    </g>
  </g>
  <g opacity=".7">
    <path d="M12,5.16c.51,0,1.01.1,1.48.3.45.19.86.46,1.21.81.35.35.62.75.81,1.21.2.47.3.96.3,1.48s-.1,1.01-.3,1.48c-.19.45-.46.86-.81,1.21-.35.35-.75.62-1.21.81-.47.2-.96.3-1.48.3s-1.01-.1-1.48-.3c-.45-.19-.86-.46-1.21-.81-.35-.35-.62-.75-.81-1.21-.2-.47-.3-.96-.3-1.48s.1-1.01.3-1.48c.19-.45.46-.86.81-1.21.35-.35.75-.62,1.21-.81.47-.2.96-.3,1.48-.3M12,4.26c-2.59,0-4.69,2.1-4.69,4.69s2.1,4.69,4.69,4.69,4.69-2.1,4.69-4.69-2.1-4.69-4.69-4.69h0Z" fill="#fff" stroke-width="0"/>
    <g>
      <path d="M11.71,9.86s-.06-.06-.08-.09c.02.03.05.06.08.09Z" fill="#fff" stroke-width="0"/>
      <path d="M12.25,9.89s.05-.03.07-.05c-.02.02-.04.04-.07.05Z" fill="#fff" stroke-width="0"/>
      <path d="M12.32,9.84s.01-.02.02-.02c0,0-.01.02-.02.02Z" fill="#fff" stroke-width="0"/>
    </g>
    <g>
      <path d="M14.45,7.14l-2.1,2.66s0,0,0,0c0,0,0,0,0,0,0,0-.01.02-.02.02-.02.02-.04.04-.07.05,0,0,0,0,0,0,0,0,0,0,0,0,0,0-.01,0-.02.01s-.01,0-.02,0c0,0,0,0,0,0,0,0,0,0,0,0-.01,0-.02,0-.03.01,0,0,0,0-.01,0,0,0,0,0-.01,0-.01,0-.02,0-.04,0h0s-.02,0-.02,0c0,0,0,0-.01,0,0,0-.02,0-.03,0,0,0-.02,0-.02,0h0s-.01,0-.02,0c0,0-.01,0-.02,0,0,0,0,0,0,0,0,0,0,0-.01,0,0,0-.01,0-.02,0,0,0,0,0,0,0,0,0,0,0-.01,0,0,0-.01,0-.02,0,0,0,0,0,0,0,0,0,0,0-.01,0,0,0,0,0,0,0,0,0-.01,0-.02,0,0,0,0,0,0,0,0,0-.01,0-.02,0,0,0,0,0,0,0,0,0-.01,0-.02,0,0,0-.02,0-.03-.01,0,0,0,0,0,0,0,0,0,0-.01,0,0,0-.01,0-.02-.01,0,0,0,0-.01,0,0,0-.02-.01-.03-.02,0,0,0,0,0,0-.03-.03-.06-.06-.08-.09,0,0,0,0,0,0,0,0,0,0,0,0,0,0,0-.01-.01-.02s0-.01,0-.02c0,0,0,0,0-.01,0,0,0,0,0,0,0,0,0,0,0-.01,0,0,0,0,0-.01,0,0,0,0,0-.01,0,0,0,0,0,0,0-.02,0-.03-.01-.05,0,0,0,0,0-.01,0,0,0,0,0-.01,0,0,0,0,0,0,0,0,0-.02,0-.03,0,0,0-.02,0-.02v-2.28c0-.25.2-.45.45-.45s.45.2.45.45v.99l1.3-1.65c.15-.19.44-.23.63-.07.19.15.23.44.07.63Z" fill="#fff" stroke-width="0"/>
      <path d="M11.56,9.61s0,.03.01.05c0-.02,0-.03-.01-.05Z" fill="#fff" stroke-width="0"/>
      <path d="M12.09,9.96s.02,0,.04,0c-.01,0-.02,0-.04,0Z" fill="#fff" stroke-width="0"/>
    </g>
  </g>
</svg>