<?xml version="1.0" encoding="UTF-8"?>
<svg id="r" data-name="Livello 18" xmlns="http://www.w3.org/2000/svg" viewBox="0 0 24 24">
  <path d="M19,5h-2v-1c0-.55-.45-1-1-1h-8c-.55,0-1,.45-1,1v1h-2c-1.1,0-2,.9-2,2v1c0,2.55,1.92,4.63,4.39,4.94.63,1.5,1.98,2.63,3.61,2.96v3.1h-3c-.55,0-1,.45-1,1h0c0,.55.45,1,1,1h8c.55,0,1-.45,1-1h0c0-.55-.45-1-1-1h-3v-3.1c1.63-.33,2.98-1.46,3.61-2.96,2.47-.31,4.39-2.39,4.39-4.94v-1c0-1.1-.9-2-2-2ZM5,8v-1h2v3.82c-1.16-.42-2-1.52-2-2.82ZM19,8c0,1.3-.84,2.4-2,2.82v-3.82h2v1Z" fill="currentColor" stroke-width="0"/>
  <path d="M11.43,14.2v-2.87l-4.33-4.88c-.08-.08-.14-.17-.19-.27-.05-.1-.07-.2-.07-.31,0-.25.09-.45.26-.62s.38-.24.63-.24h8.55c.25,0,.46.08.63.24s.26.37.26.62c0,.11-.02.21-.07.31s-.11.19-.19.27l-4.33,4.88v2.87h2.3c.16,0,.3.06.41.17s.17.25.17.41-.06.3-.17.41c-.11.11-.25.17-.41.17h-5.74c-.16,0-.3-.06-.41-.17-.11-.11-.17-.25-.17-.41s.06-.3.17-.41c.11-.11.25-.17.41-.17h2.3ZM9.39,7.31h5.22l1.03-1.15h-7.29l1.03,1.15Z" fill="currentColor" stroke-width="0"/>
  <path d="M11.43,14.2v-2.87l-4.33-4.88c-.08-.08-.14-.17-.19-.27-.05-.1-.07-.2-.07-.31,0-.25.09-.45.26-.62s.38-.24.63-.24h8.55c.25,0,.46.08.63.24s.26.37.26.62c0,.11-.02.21-.07.31s-.11.19-.19.27l-4.33,4.88v2.87h2.3c.16,0,.3.06.41.17s.17.25.17.41-.06.3-.17.41c-.11.11-.25.17-.41.17h-5.74c-.16,0-.3-.06-.41-.17-.11-.11-.17-.25-.17-.41s.06-.3.17-.41c.11-.11.25-.17.41-.17h2.3ZM9.39,7.31h5.22l1.03-1.15h-7.29l1.03,1.15Z" fill="rgba(0, 0, 0, .4)" stroke-width="0"/>
  <path d="M11.43,13.7v-2.87l-4.33-4.88c-.08-.08-.14-.17-.19-.27-.05-.1-.07-.2-.07-.31,0-.25.09-.45.26-.62s.38-.24.63-.24h8.55c.25,0,.46.08.63.24s.26.37.26.62c0,.11-.02.21-.07.31s-.11.19-.19.27l-4.33,4.88v2.87h2.3c.16,0,.3.06.41.17s.17.25.17.41-.06.3-.17.41c-.11.11-.25.17-.41.17h-5.74c-.16,0-.3-.06-.41-.17-.11-.11-.17-.25-.17-.41s.06-.3.17-.41c.11-.11.25-.17.41-.17h2.3ZM9.39,6.81h5.22l1.03-1.15h-7.29l1.03,1.15Z" fill="currentColor" stroke-width="0"/>
  <path d="M11.43,13.7v-2.87l-4.33-4.88c-.08-.08-.14-.17-.19-.27-.05-.1-.07-.2-.07-.31,0-.25.09-.45.26-.62s.38-.24.63-.24h8.55c.25,0,.46.08.63.24s.26.37.26.62c0,.11-.02.21-.07.31s-.11.19-.19.27l-4.33,4.88v2.87h2.3c.16,0,.3.06.41.17s.17.25.17.41-.06.3-.17.41c-.11.11-.25.17-.41.17h-5.74c-.16,0-.3-.06-.41-.17-.11-.11-.17-.25-.17-.41s.06-.3.17-.41c.11-.11.25-.17.41-.17h2.3ZM9.39,6.81h5.22l1.03-1.15h-7.29l1.03,1.15Z" fill="rgba(255, 255, 255, .7)" stroke-width="0"/>
</svg>