<?xml version="1.0" encoding="UTF-8"?>
<svg id="n" data-name="Livello 14" xmlns="http://www.w3.org/2000/svg" viewBox="0 0 24 24">
  <path d="M19,5h-2v-1c0-.55-.45-1-1-1h-8c-.55,0-1,.45-1,1v1h-2c-1.1,0-2,.9-2,2v1c0,2.55,1.92,4.63,4.39,4.94.63,1.5,1.98,2.63,3.61,2.96v3.1h-3c-.55,0-1,.45-1,1h0c0,.55.45,1,1,1h8c.55,0,1-.45,1-1h0c0-.55-.45-1-1-1h-3v-3.1c1.63-.33,2.98-1.46,3.61-2.96,2.47-.31,4.39-2.39,4.39-4.94v-1c0-1.1-.9-2-2-2ZM5,8v-1h2v3.82c-1.16-.42-2-1.52-2-2.82ZM19,8c0,1.3-.84,2.4-2,2.82v-3.82h2v1Z" fill="currentColor" stroke-width="0"/>
  <g>
    <path d="M7.76,12.99l4.28-1.53c.65-.23.84-1.07.35-1.56l-2.14-2.14c-.49-.49-1.33-.3-1.56.35l-1.53,4.28c-.13.38.23.74.61.61Z" fill="currentColor" stroke-width="0"/>
    <path d="M13,8.59l2.4-2.4c.23-.23.61-.23.84,0l.03.03c.14.14.36.14.5,0h0c.14-.14.14-.36,0-.5l-.03-.03c-.51-.51-1.33-.51-1.84,0l-2.4,2.4c-.14.14-.14.36,0,.5h0c.14.14.36.14.5,0Z" fill="currentColor" stroke-width="0"/>
    <path d="M10.64,6.17l-.03.03c-.14.14-.14.36,0,.5h0c.14.14.36.14.5,0l.03-.03c.51-.51.51-1.33,0-1.84l-.02-.02c-.14-.14-.37-.14-.51,0h0c-.14.14-.14.36,0,.5l.03.03c.23.23.23.61,0,.83Z" fill="currentColor" stroke-width="0"/>
    <path d="M13.95,8.54l-.5.5c-.14.14-.14.36,0,.5h0c.14.14.36.14.5,0l.5-.5c.23-.23.61-.23.84,0l.51.51c.14.14.36.14.5,0h0c.14-.14.14-.36,0-.5l-.51-.51c-.51-.51-1.33-.51-1.84,0Z" fill="currentColor" stroke-width="0"/>
    <path d="M13,5.7l-1.45,1.45c-.14.14-.14.36,0,.5h0c.14.14.36.14.5,0l1.45-1.45c.51-.51.51-1.33,0-1.84l-.5-.5c-.14-.14-.36-.14-.5,0h0c-.14.14-.14.36,0,.5l.5.5c.23.23.23.61,0,.84Z" fill="currentColor" stroke-width="0"/>
  </g>
  <g opacity=".4">
    <path d="M7.76,12.99l4.28-1.53c.65-.23.84-1.07.35-1.56l-2.14-2.14c-.49-.49-1.33-.3-1.56.35l-1.53,4.28c-.13.38.23.74.61.61Z" fill="#000" stroke-width="0"/>
    <path d="M13,8.59l2.4-2.4c.23-.23.61-.23.84,0l.03.03c.14.14.36.14.5,0h0c.14-.14.14-.36,0-.5l-.03-.03c-.51-.51-1.33-.51-1.84,0l-2.4,2.4c-.14.14-.14.36,0,.5h0c.14.14.36.14.5,0Z" fill="#000" stroke-width="0"/>
    <path d="M10.64,6.17l-.03.03c-.14.14-.14.36,0,.5h0c.14.14.36.14.5,0l.03-.03c.51-.51.51-1.33,0-1.84l-.02-.02c-.14-.14-.37-.14-.51,0h0c-.14.14-.14.36,0,.5l.03.03c.23.23.23.61,0,.83Z" fill="#000" stroke-width="0"/>
    <path d="M13.95,8.54l-.5.5c-.14.14-.14.36,0,.5h0c.14.14.36.14.5,0l.5-.5c.23-.23.61-.23.84,0l.51.51c.14.14.36.14.5,0h0c.14-.14.14-.36,0-.5l-.51-.51c-.51-.51-1.33-.51-1.84,0Z" fill="#000" stroke-width="0"/>
    <path d="M13,5.7l-1.45,1.45c-.14.14-.14.36,0,.5h0c.14.14.36.14.5,0l1.45-1.45c.51-.51.51-1.33,0-1.84l-.5-.5c-.14-.14-.36-.14-.5,0h0c-.14.14-.14.36,0,.5l.5.5c.23.23.23.61,0,.84Z" fill="#000" stroke-width="0"/>
  </g>
  <g>
    <path d="M7.76,12.49l4.28-1.53c.65-.23.84-1.07.35-1.56l-2.14-2.14c-.49-.49-1.33-.3-1.56.35l-1.53,4.28c-.13.38.23.74.61.61Z" fill="currentColor" stroke-width="0"/>
    <path d="M13,8.09l2.4-2.4c.23-.23.61-.23.84,0l.03.03c.14.14.36.14.5,0h0c.14-.14.14-.36,0-.5l-.03-.03c-.51-.51-1.33-.51-1.84,0l-2.4,2.4c-.14.14-.14.36,0,.5h0c.14.14.36.14.5,0Z" fill="currentColor" stroke-width="0"/>
    <path d="M10.64,5.67l-.03.03c-.14.14-.14.36,0,.5h0c.14.14.36.14.5,0l.03-.03c.51-.51.51-1.33,0-1.84l-.02-.02c-.14-.14-.37-.14-.51,0h0c-.14.14-.14.36,0,.5l.03.03c.23.23.23.61,0,.83Z" fill="currentColor" stroke-width="0"/>
    <path d="M13.95,8.04l-.5.5c-.14.14-.14.36,0,.5h0c.14.14.36.14.5,0l.5-.5c.23-.23.61-.23.84,0l.51.51c.14.14.36.14.5,0h0c.14-.14.14-.36,0-.5l-.51-.51c-.51-.51-1.33-.51-1.84,0Z" fill="currentColor" stroke-width="0"/>
    <path d="M13,5.2l-1.45,1.45c-.14.14-.14.36,0,.5h0c.14.14.36.14.5,0l1.45-1.45c.51-.51.51-1.33,0-1.84l-.5-.5c-.14-.14-.36-.14-.5,0h0c-.14.14-.14.36,0,.5l.5.5c.23.23.23.61,0,.84Z" fill="currentColor" stroke-width="0"/>
  </g>
  <g opacity=".7">
    <path d="M7.76,12.49l4.28-1.53c.65-.23.84-1.07.35-1.56l-2.14-2.14c-.49-.49-1.33-.3-1.56.35l-1.53,4.28c-.13.38.23.74.61.61Z" fill="#fff" stroke-width="0"/>
    <path d="M13,8.09l2.4-2.4c.23-.23.61-.23.84,0l.03.03c.14.14.36.14.5,0h0c.14-.14.14-.36,0-.5l-.03-.03c-.51-.51-1.33-.51-1.84,0l-2.4,2.4c-.14.14-.14.36,0,.5h0c.14.14.36.14.5,0Z" fill="#fff" stroke-width="0"/>
    <path d="M10.64,5.67l-.03.03c-.14.14-.14.36,0,.5h0c.14.14.36.14.5,0l.03-.03c.51-.51.51-1.33,0-1.84l-.02-.02c-.14-.14-.37-.14-.51,0h0c-.14.14-.14.36,0,.5l.03.03c.23.23.23.61,0,.83Z" fill="#fff" stroke-width="0"/>
    <path d="M13.95,8.04l-.5.5c-.14.14-.14.36,0,.5h0c.14.14.36.14.5,0l.5-.5c.23-.23.61-.23.84,0l.51.51c.14.14.36.14.5,0h0c.14-.14.14-.36,0-.5l-.51-.51c-.51-.51-1.33-.51-1.84,0Z" fill="#fff" stroke-width="0"/>
    <path d="M13,5.2l-1.45,1.45c-.14.14-.14.36,0,.5h0c.14.14.36.14.5,0l1.45-1.45c.51-.51.51-1.33,0-1.84l-.5-.5c-.14-.14-.36-.14-.5,0h0c-.14.14-.14.36,0,.5l.5.5c.23.23.23.61,0,.84Z" fill="#fff" stroke-width="0"/>
  </g>
</svg>