<?xml version="1.0" encoding="UTF-8"?>
<svg id="l" data-name="Livello 12" xmlns="http://www.w3.org/2000/svg" viewBox="0 0 24 24">
  <path d="M19,5h-2v-1c0-.55-.45-1-1-1h-8c-.55,0-1,.45-1,1v1h-2c-1.1,0-2,.9-2,2v1c0,2.55,1.92,4.63,4.39,4.94.63,1.5,1.98,2.63,3.61,2.96v3.1h-3c-.55,0-1,.45-1,1h0c0,.55.45,1,1,1h8c.55,0,1-.45,1-1h0c0-.55-.45-1-1-1h-3v-3.1c1.63-.33,2.98-1.46,3.61-2.96,2.47-.31,4.39-2.39,4.39-4.94v-1c0-1.1-.9-2-2-2ZM5,8v-1h2v3.82c-1.16-.42-2-1.52-2-2.82ZM19,8c0,1.3-.84,2.4-2,2.82v-3.82h2v1Z" fill="currentColor" stroke-width="0"/>
  <path d="M11.22,4.91c-.21-.21-.49-.33-.78-.33h-2.86c-.61,0-1.1.5-1.1,1.11v6.63c0,.61.49,1.11,1.1,1.11h8.84c.61,0,1.11-.5,1.11-1.11v-5.53c0-.61-.5-1.11-1.11-1.11h-4.42l-.78-.78Z" fill="currentColor" stroke-width="0"/>
  <path d="M11.22,4.91c-.21-.21-.49-.33-.78-.33h-2.86c-.61,0-1.1.5-1.1,1.11v6.63c0,.61.49,1.11,1.1,1.11h8.84c.61,0,1.11-.5,1.11-1.11v-5.53c0-.61-.5-1.11-1.11-1.11h-4.42l-.78-.78Z" fill="#000" opacity=".4" stroke-width="0"/>
  <path d="M11.22,4.41c-.21-.21-.49-.33-.78-.33h-2.86c-.61,0-1.1.5-1.1,1.11v6.63c0,.61.49,1.11,1.1,1.11h8.84c.61,0,1.11-.5,1.11-1.11v-5.53c0-.61-.5-1.11-1.11-1.11h-4.42l-.78-.78Z" fill="currentColor" stroke-width="0"/>
  <path d="M11.22,4.41c-.21-.21-.49-.33-.78-.33h-2.86c-.61,0-1.1.5-1.1,1.11v6.63c0,.61.49,1.11,1.1,1.11h8.84c.61,0,1.11-.5,1.11-1.11v-5.53c0-.61-.5-1.11-1.11-1.11h-4.42l-.78-.78Z" fill="#fff" opacity=".7" stroke-width="0"/>
</svg>