<?xml version="1.0" encoding="UTF-8"?>
<svg id="k" data-name="Livello 11" xmlns="http://www.w3.org/2000/svg" viewBox="0 0 24 24">
  <path d="M19,5h-2v-1c0-.55-.45-1-1-1h-8c-.55,0-1,.45-1,1v1h-2c-1.1,0-2,.9-2,2v1c0,2.55,1.92,4.63,4.39,4.94.63,1.5,1.98,2.63,3.61,2.96v3.1h-3c-.55,0-1,.45-1,1h0c0,.55.45,1,1,1h8c.55,0,1-.45,1-1h0c0-.55-.45-1-1-1h-3v-3.1c1.63-.33,2.98-1.46,3.61-2.96,2.47-.31,4.39-2.39,4.39-4.94v-1c0-1.1-.9-2-2-2ZM5,8v-1h2v3.82c-1.16-.42-2-1.52-2-2.82ZM19,8c0,1.3-.84,2.4-2,2.82v-3.82h2v1Z" fill="currentColor" stroke-width="0"/>
  <path d="M13.77,13.39c0,.24.2.44.44.44h1.52c.38,0,.7-.33.66-.72-.26-2.74-2-3.85-3.51-4.15v-1.33c1.46-.19,2.67-.82,3.21-1.65.29-.43-.05-1-.57-1h-7.06c-.52,0-.86.57-.57,1,.55.83,1.75,1.46,3.21,1.65v1.33c-1.5.3-3.25,1.41-3.51,4.15-.04.38.28.72.66.72h1.52c.24,0,.44-.2.44-.44s-.2-.44-.44-.44h-1.27c.41-3.02,2.94-3.18,3.48-3.18s3.07.16,3.48,3.18h-1.27c-.24,0-.44.2-.44.44ZM11.78,13.81c-.31-.08-.56-.33-.64-.64-.08-.33.03-.64.23-.84.24-.24,1.29-.69,1.91-.95.18-.08.36.11.29.29-.26.63-.71,1.67-.95,1.91-.21.2-.52.31-.85.23Z" fill="currentColor" stroke-width="0"/>
  <path d="M13.77,13.39c0,.24.2.44.44.44h1.52c.38,0,.7-.33.66-.72-.26-2.74-2-3.85-3.51-4.15v-1.33c1.46-.19,2.67-.82,3.21-1.65.29-.43-.05-1-.57-1h-7.06c-.52,0-.86.57-.57,1,.55.83,1.75,1.46,3.21,1.65v1.33c-1.5.3-3.25,1.41-3.51,4.15-.04.38.28.72.66.72h1.52c.24,0,.44-.2.44-.44s-.2-.44-.44-.44h-1.27c.41-3.02,2.94-3.18,3.48-3.18s3.07.16,3.48,3.18h-1.27c-.24,0-.44.2-.44.44ZM11.78,13.81c-.31-.08-.56-.33-.64-.64-.08-.33.03-.64.23-.84.24-.24,1.29-.69,1.91-.95.18-.08.36.11.29.29-.26.63-.71,1.67-.95,1.91-.21.2-.52.31-.85.23Z" fill="#000" opacity=".4" stroke-width="0"/>
  <path d="M13.77,12.89c0,.24.2.44.44.44h1.52c.38,0,.7-.33.66-.72-.26-2.74-2-3.85-3.51-4.15v-1.33c1.46-.19,2.67-.82,3.21-1.65.29-.43-.05-1-.57-1h-7.06c-.52,0-.86.57-.57,1,.55.83,1.75,1.46,3.21,1.65v1.33c-1.5.3-3.25,1.41-3.51,4.15-.04.38.28.72.66.72h1.52c.24,0,.44-.2.44-.44s-.2-.44-.44-.44h-1.27c.41-3.02,2.94-3.18,3.48-3.18s3.07.16,3.48,3.18h-1.27c-.24,0-.44.2-.44.44ZM11.78,13.31c-.31-.08-.56-.33-.64-.64-.08-.33.03-.64.23-.84.24-.24,1.29-.69,1.91-.95.18-.08.36.11.29.29-.26.63-.71,1.67-.95,1.91-.21.2-.52.31-.85.23Z" fill="currentColor" stroke-width="0"/>
  <path d="M13.77,12.89c0,.24.2.44.44.44h1.52c.38,0,.7-.33.66-.72-.26-2.74-2-3.85-3.51-4.15v-1.33c1.46-.19,2.67-.82,3.21-1.65.29-.43-.05-1-.57-1h-7.06c-.52,0-.86.57-.57,1,.55.83,1.75,1.46,3.21,1.65v1.33c-1.5.3-3.25,1.41-3.51,4.15-.04.38.28.72.66.72h1.52c.24,0,.44-.2.44-.44s-.2-.44-.44-.44h-1.27c.41-3.02,2.94-3.18,3.48-3.18s3.07.16,3.48,3.18h-1.27c-.24,0-.44.2-.44.44ZM11.78,13.31c-.31-.08-.56-.33-.64-.64-.08-.33.03-.64.23-.84.24-.24,1.29-.69,1.91-.95.18-.08.36.11.29.29-.26.63-.71,1.67-.95,1.91-.21.2-.52.31-.85.23Z" fill="#fff" opacity=".7" stroke-width="0"/>
</svg>