<?xml version="1.0" encoding="UTF-8"?>
<svg id="g" data-name="Livello 7" xmlns="http://www.w3.org/2000/svg" viewBox="0 0 24 24">
  <path d="M19,5h-2v-1c0-.55-.45-1-1-1h-8c-.55,0-1,.45-1,1v1h-2c-1.1,0-2,.9-2,2v1c0,2.55,1.92,4.63,4.39,4.94.63,1.5,1.98,2.63,3.61,2.96v3.1h-3c-.55,0-1,.45-1,1h0c0,.55.45,1,1,1h8c.55,0,1-.45,1-1h0c0-.55-.45-1-1-1h-3v-3.1c1.63-.33,2.98-1.46,3.61-2.96,2.47-.31,4.39-2.39,4.39-4.94v-1c0-1.1-.9-2-2-2ZM5,8v-1h2v3.82c-1.16-.42-2-1.52-2-2.82ZM19,8c0,1.3-.84,2.4-2,2.82v-3.82h2v1Z" fill="currentColor" stroke-width="0"/>
  <path d="M12,3.55c-2.99,0-5.44,2.45-5.44,5.44s2.45,5.44,5.44,5.44,5.44-2.45,5.44-5.44-2.45-5.44-5.44-5.44ZM13.93,11.06l-2.22-1.36c-.16-.1-.26-.27-.26-.46v-2.55c0-.22.19-.41.41-.41s.41.18.41.41v2.42l2.09,1.26c.2.12.26.38.14.57-.12.19-.38.25-.57.13Z" fill="currentColor" stroke-width="0"/>
  <path d="M12,3.55c-2.99,0-5.44,2.45-5.44,5.44s2.45,5.44,5.44,5.44,5.44-2.45,5.44-5.44-2.45-5.44-5.44-5.44ZM13.93,11.06l-2.22-1.36c-.16-.1-.26-.27-.26-.46v-2.55c0-.22.19-.41.41-.41s.41.18.41.41v2.42l2.09,1.26c.2.12.26.38.14.57-.12.19-.38.25-.57.13Z" fill="#000" opacity=".4" stroke-width="0"/>
  <path d="M12,3.05c-2.99,0-5.44,2.45-5.44,5.44s2.45,5.44,5.44,5.44,5.44-2.45,5.44-5.44-2.45-5.44-5.44-5.44ZM13.93,10.56l-2.22-1.36c-.16-.1-.26-.27-.26-.46v-2.55c0-.22.19-.41.41-.41s.41.18.41.41v2.42l2.09,1.26c.2.12.26.38.14.57-.12.19-.38.25-.57.13Z" fill="currentColor" stroke-width="0"/>
  <path d="M12,3.05c-2.99,0-5.44,2.45-5.44,5.44s2.45,5.44,5.44,5.44,5.44-2.45,5.44-5.44-2.45-5.44-5.44-5.44ZM13.93,10.56l-2.22-1.36c-.16-.1-.26-.27-.26-.46v-2.55c0-.22.19-.41.41-.41s.41.18.41.41v2.42l2.09,1.26c.2.12.26.38.14.57-.12.19-.38.25-.57.13Z" fill="#fff" opacity=".7" stroke-width="0"/>
</svg>