<?xml version="1.0" encoding="UTF-8"?>
<svg id="p" data-name="Livello 16" xmlns="http://www.w3.org/2000/svg" viewBox="0 0 24 24">
  <path d="M19,5h-2v-1c0-.55-.45-1-1-1h-8c-.55,0-1,.45-1,1v1h-2c-1.1,0-2,.9-2,2v1c0,2.55,1.92,4.63,4.39,4.94.63,1.5,1.98,2.63,3.61,2.96v3.1h-3c-.55,0-1,.45-1,1h0c0,.55.45,1,1,1h8c.55,0,1-.45,1-1h0c0-.55-.45-1-1-1h-3v-3.1c1.63-.33,2.98-1.46,3.61-2.96,2.47-.31,4.39-2.39,4.39-4.94v-1c0-1.1-.9-2-2-2ZM5,8v-1h2v3.82c-1.16-.42-2-1.52-2-2.82ZM19,8c0,1.3-.84,2.4-2,2.82v-3.82h2v1Z" fill="currentColor" stroke-width="0"/>
  <path d="M15.78,4.77c-.19-.19-.5-.19-.69,0l-.19.19c-.19.19-.19.5,0,.68h0c.19.2.5.2.69,0l.19-.19c.19-.2.19-.5,0-.69ZM12,3.21h0c-.27,0-.48.21-.48.48v.47c0,.27.21.48.48.48h0c.27,0,.48-.21.48-.48v-.47c0-.27-.21-.48-.48-.48ZM16.38,9.04h.5c.27,0,.48-.21.48-.48h0c0-.27-.21-.49-.48-.49h-.49c-.27,0-.48.21-.48.48h0c0,.27.21.49.48.49ZM10.53,11.08v1.86c0,.27.22.49.49.49h1.95c.27,0,.49-.22.49-.49v-1.86c1-.58,1.62-1.72,1.43-2.99-.2-1.27-1.25-2.29-2.53-2.45-1.78-.21-3.29,1.17-3.29,2.9,0,1.09.59,2.03,1.46,2.54ZM8.09,8.56h0c0-.27-.21-.49-.48-.49h-.49c-.27,0-.48.21-.48.48h0c0,.27.21.49.48.49h.49c.27,0,.48-.21.48-.48ZM9.1,4.96l-.19-.19c-.19-.19-.5-.19-.69,0s-.19.5,0,.69l.19.19c.19.19.5.19.68,0,.2-.2.2-.5,0-.69Z" fill="currentColor" stroke-width="0"/>
  <path d="M15.78,4.77c-.19-.19-.5-.19-.69,0l-.19.19c-.19.19-.19.5,0,.68h0c.19.2.5.2.69,0l.19-.19c.19-.2.19-.5,0-.69ZM12,3.21h0c-.27,0-.48.21-.48.48v.47c0,.27.21.48.48.48h0c.27,0,.48-.21.48-.48v-.47c0-.27-.21-.48-.48-.48ZM16.38,9.04h.5c.27,0,.48-.21.48-.48h0c0-.27-.21-.49-.48-.49h-.49c-.27,0-.48.21-.48.48h0c0,.27.21.49.48.49ZM10.53,11.08v1.86c0,.27.22.49.49.49h1.95c.27,0,.49-.22.49-.49v-1.86c1-.58,1.62-1.72,1.43-2.99-.2-1.27-1.25-2.29-2.53-2.45-1.78-.21-3.29,1.17-3.29,2.9,0,1.09.59,2.03,1.46,2.54ZM8.09,8.56h0c0-.27-.21-.49-.48-.49h-.49c-.27,0-.48.21-.48.48h0c0,.27.21.49.48.49h.49c.27,0,.48-.21.48-.48ZM9.1,4.96l-.19-.19c-.19-.19-.5-.19-.69,0s-.19.5,0,.69l.19.19c.19.19.5.19.68,0,.2-.2.2-.5,0-.69Z" fill="#000" opacity=".4" stroke-width="0"/>
  <path d="M15.78,4.27c-.19-.19-.5-.19-.69,0l-.19.19c-.19.19-.19.5,0,.68h0c.19.2.5.2.69,0l.19-.19c.19-.2.19-.5,0-.69ZM12,2.71h0c-.27,0-.48.21-.48.48v.47c0,.27.21.48.48.48h0c.27,0,.48-.21.48-.48v-.47c0-.27-.21-.48-.48-.48ZM16.38,8.54h.5c.27,0,.48-.21.48-.48h0c0-.27-.21-.49-.48-.49h-.49c-.27,0-.48.21-.48.48h0c0,.27.21.49.48.49ZM10.53,10.58v1.86c0,.27.22.49.49.49h1.95c.27,0,.49-.22.49-.49v-1.86c1-.58,1.62-1.72,1.43-2.99-.2-1.27-1.25-2.29-2.53-2.45-1.78-.21-3.29,1.17-3.29,2.9,0,1.09.59,2.03,1.46,2.54ZM8.09,8.06h0c0-.27-.21-.49-.48-.49h-.49c-.27,0-.48.21-.48.48h0c0,.27.21.49.48.49h.49c.27,0,.48-.21.48-.48ZM9.1,4.46l-.19-.19c-.19-.19-.5-.19-.69,0s-.19.5,0,.69l.19.19c.19.19.5.19.68,0,.2-.2.2-.5,0-.69Z" fill="currentColor" stroke-width="0"/>
  <path d="M15.78,4.27c-.19-.19-.5-.19-.69,0l-.19.19c-.19.19-.19.5,0,.68h0c.19.2.5.2.69,0l.19-.19c.19-.2.19-.5,0-.69ZM12,2.71h0c-.27,0-.48.21-.48.48v.47c0,.27.21.48.48.48h0c.27,0,.48-.21.48-.48v-.47c0-.27-.21-.48-.48-.48ZM16.38,8.54h.5c.27,0,.48-.21.48-.48h0c0-.27-.21-.49-.48-.49h-.49c-.27,0-.48.21-.48.48h0c0,.27.21.49.48.49ZM10.53,10.58v1.86c0,.27.22.49.49.49h1.95c.27,0,.49-.22.49-.49v-1.86c1-.58,1.62-1.72,1.43-2.99-.2-1.27-1.25-2.29-2.53-2.45-1.78-.21-3.29,1.17-3.29,2.9,0,1.09.59,2.03,1.46,2.54ZM8.09,8.06h0c0-.27-.21-.49-.48-.49h-.49c-.27,0-.48.21-.48.48h0c0,.27.21.49.48.49h.49c.27,0,.48-.21.48-.48ZM9.1,4.46l-.19-.19c-.19-.19-.5-.19-.69,0s-.19.5,0,.69l.19.19c.19.19.5.19.68,0,.2-.2.2-.5,0-.69Z" fill="#fff" opacity=".7" stroke-width="0"/>
</svg>