<?xml version="1.0" encoding="UTF-8"?>
<svg id="u" data-name="Livello 21" xmlns="http://www.w3.org/2000/svg" viewBox="0 0 24 24">
  <path d="M19,5h-2v-1c0-.55-.45-1-1-1h-8c-.55,0-1,.45-1,1v1h-2c-1.1,0-2,.9-2,2v1c0,2.55,1.92,4.63,4.39,4.94.63,1.5,1.98,2.63,3.61,2.96v3.1h-3c-.55,0-1,.45-1,1h0c0,.55.45,1,1,1h8c.55,0,1-.45,1-1h0c0-.55-.45-1-1-1h-3v-3.1c1.63-.33,2.98-1.46,3.61-2.96,2.47-.31,4.39-2.39,4.39-4.94v-1c0-1.1-.9-2-2-2ZM5,8v-1h2v3.82c-1.16-.42-2-1.52-2-2.82ZM19,8c0,1.3-.84,2.4-2,2.82v-3.82h2v1Z" fill="currentColor" stroke-width="0"/>
  <g>
    <path d="M9.66,11.02c-.22.02-.41-.15-.41-.37,0-.26.03-.61.12-1,.21-.97.71-1.79,1.45-2.38.62-.5,1.36-.81,2.16-.9.66-.08,1.32,0,1.95.22.21.07.31.31.22.51l-.18.4c-.08.17-.27.26-.45.2-.45-.15-.92-.2-1.39-.15-.57.07-1.11.29-1.55.65-.53.43-.88,1-1.03,1.72-.06.28-.08.53-.09.71s-.15.34-.33.36l-.44.05Z" fill="currentColor" stroke-width="0"/>
    <path d="M10.04,13.56c.5.25,1.6.66,2.17-.29.05-.08.16-.09.23-.03.4.39,1.69,1.43,3.9,1.45.1,0,.17-.09.14-.19l-.86-3.06c-.02-.07-.09-.12-.16-.11-.27.03-.93.01-1.48-.79-.05-.08-.02-.19.07-.22.4-.16,1.44-.48,1.88.46,0,.02.01.04.01.06v.62c0,.06.03.11.08.13l.3.16c.12.06.25-.05.21-.17-.09-.33-.22-.83-.27-1.23-.07-.63-.85-2.61-2.79-2.61-2.04,0-2.51,1.52-2.54,1.63,0,0,0,0,0,.01-.03.07-.25.67-.16,1.52,0,0,0,.01,0,.02.03.13.36,1.76-.75,2.37-.1.06-.1.21,0,.26Z" fill="currentColor" stroke-width="0"/>
    <path d="M8.96,10.91c.08-.07.13-.18.12-.29-.03-1.5.7-2.92,1.96-3.75,1.63-1.08,3.37-.65,4.01-.43.15.05.31,0,.41-.12.22-.28.68-.74,1.33-.88.11-.02.14-.16.05-.23-2.07-1.42-4.82-1.47-6.93-.08-2.23,1.47-3.27,4.23-2.57,6.82,0,0,.24.61.55,1.11.07.19.1.43.11.62,0,.1.14.14.19.05.17-.27.39-.69.39-1.08,0-.61-.1-1.18.28-1.63.04-.04.07-.08.11-.11Z" fill="currentColor" stroke-width="0"/>
  </g>
  <g opacity=".4">
    <path d="M9.66,11.02c-.22.02-.41-.15-.41-.37,0-.26.03-.61.12-1,.21-.97.71-1.79,1.45-2.38.62-.5,1.36-.81,2.16-.9.66-.08,1.32,0,1.95.22.21.07.31.31.22.51l-.18.4c-.08.17-.27.26-.45.2-.45-.15-.92-.2-1.39-.15-.57.07-1.11.29-1.55.65-.53.43-.88,1-1.03,1.72-.06.28-.08.53-.09.71s-.15.34-.33.36l-.44.05Z" fill="#000" stroke-width="0"/>
    <path d="M10.04,13.56c.5.25,1.6.66,2.17-.29.05-.08.16-.09.23-.03.4.39,1.69,1.43,3.9,1.45.1,0,.17-.09.14-.19l-.86-3.06c-.02-.07-.09-.12-.16-.11-.27.03-.93.01-1.48-.79-.05-.08-.02-.19.07-.22.4-.16,1.44-.48,1.88.46,0,.02.01.04.01.06v.62c0,.06.03.11.08.13l.3.16c.12.06.25-.05.21-.17-.09-.33-.22-.83-.27-1.23-.07-.63-.85-2.61-2.79-2.61-2.04,0-2.51,1.52-2.54,1.63,0,0,0,0,0,.01-.03.07-.25.67-.16,1.52,0,0,0,.01,0,.02.03.13.36,1.76-.75,2.37-.1.06-.1.21,0,.26Z" fill="#000" stroke-width="0"/>
    <path d="M8.96,10.91c.08-.07.13-.18.12-.29-.03-1.5.7-2.92,1.96-3.75,1.63-1.08,3.37-.65,4.01-.43.15.05.31,0,.41-.12.22-.28.68-.74,1.33-.88.11-.02.14-.16.05-.23-2.07-1.42-4.82-1.47-6.93-.08-2.23,1.47-3.27,4.23-2.57,6.82,0,0,.24.61.55,1.11.07.19.1.43.11.62,0,.1.14.14.19.05.17-.27.39-.69.39-1.08,0-.61-.1-1.18.28-1.63.04-.04.07-.08.11-.11Z" fill="#000" stroke-width="0"/>
  </g>
  <g>
    <path d="M9.66,10.52c-.22.02-.41-.15-.41-.37,0-.26.03-.61.12-1,.21-.97.71-1.79,1.45-2.38.62-.5,1.36-.81,2.16-.9.66-.08,1.32,0,1.95.22.21.07.31.31.22.51l-.18.4c-.08.17-.27.26-.45.2-.45-.15-.92-.2-1.39-.15-.57.07-1.11.29-1.55.65-.53.43-.88,1-1.03,1.72-.06.28-.08.53-.09.71s-.15.34-.33.36l-.44.05Z" fill="currentColor" stroke-width="0"/>
    <path d="M10.04,13.06c.5.25,1.6.66,2.17-.29.05-.08.16-.09.23-.03.4.39,1.69,1.43,3.9,1.45.1,0,.17-.09.14-.19l-.86-3.06c-.02-.07-.09-.12-.16-.11-.27.03-.93.01-1.48-.79-.05-.08-.02-.19.07-.22.4-.16,1.44-.48,1.88.46,0,.02.01.04.01.06v.62c0,.06.03.11.08.13l.3.16c.12.06.25-.05.21-.17-.09-.33-.22-.83-.27-1.23-.07-.63-.85-2.61-2.79-2.61-2.04,0-2.51,1.52-2.54,1.63,0,0,0,0,0,.01-.03.07-.25.67-.16,1.52,0,0,0,.01,0,.02.03.13.36,1.76-.75,2.37-.1.06-.1.21,0,.26Z" fill="currentColor" stroke-width="0"/>
    <path d="M8.96,10.41c.08-.07.13-.18.12-.29-.03-1.5.7-2.92,1.96-3.75,1.63-1.08,3.37-.65,4.01-.43.15.05.31,0,.41-.12.22-.28.68-.74,1.33-.88.11-.02.14-.16.05-.23-2.07-1.42-4.82-1.47-6.93-.08-2.23,1.47-3.27,4.23-2.57,6.82,0,0,.24.61.55,1.11.07.19.1.43.11.62,0,.1.14.14.19.05.17-.27.39-.69.39-1.08,0-.61-.1-1.18.28-1.63.04-.04.07-.08.11-.11Z" fill="currentColor" stroke-width="0"/>
  </g>
  <g opacity=".7">
    <path d="M9.66,10.52c-.22.02-.41-.15-.41-.37,0-.26.03-.61.12-1,.21-.97.71-1.79,1.45-2.38.62-.5,1.36-.81,2.16-.9.66-.08,1.32,0,1.95.22.21.07.31.31.22.51l-.18.4c-.08.17-.27.26-.45.2-.45-.15-.92-.2-1.39-.15-.57.07-1.11.29-1.55.65-.53.43-.88,1-1.03,1.72-.06.28-.08.53-.09.71s-.15.34-.33.36l-.44.05Z" fill="#fff" stroke-width="0"/>
    <path d="M10.04,13.06c.5.25,1.6.66,2.17-.29.05-.08.16-.09.23-.03.4.39,1.69,1.43,3.9,1.45.1,0,.17-.09.14-.19l-.86-3.06c-.02-.07-.09-.12-.16-.11-.27.03-.93.01-1.48-.79-.05-.08-.02-.19.07-.22.4-.16,1.44-.48,1.88.46,0,.02.01.04.01.06v.62c0,.06.03.11.08.13l.3.16c.12.06.25-.05.21-.17-.09-.33-.22-.83-.27-1.23-.07-.63-.85-2.61-2.79-2.61-2.04,0-2.51,1.52-2.54,1.63,0,0,0,0,0,.01-.03.07-.25.67-.16,1.52,0,0,0,.01,0,.02.03.13.36,1.76-.75,2.37-.1.06-.1.21,0,.26Z" fill="#fff" stroke-width="0"/>
    <path d="M8.96,10.41c.08-.07.13-.18.12-.29-.03-1.5.7-2.92,1.96-3.75,1.63-1.08,3.37-.65,4.01-.43.15.05.31,0,.41-.12.22-.28.68-.74,1.33-.88.11-.02.14-.16.05-.23-2.07-1.42-4.82-1.47-6.93-.08-2.23,1.47-3.27,4.23-2.57,6.82,0,0,.24.61.55,1.11.07.19.1.43.11.62,0,.1.14.14.19.05.17-.27.39-.69.39-1.08,0-.61-.1-1.18.28-1.63.04-.04.07-.08.11-.11Z" fill="#fff" stroke-width="0"/>
  </g>
</svg>