<?xml version="1.0" encoding="UTF-8"?>
<svg id="s" data-name="Livello 19" xmlns="http://www.w3.org/2000/svg" viewBox="0 0 24 24">
  <path d="M19,5h-2v-1c0-.55-.45-1-1-1h-8c-.55,0-1,.45-1,1v1h-2c-1.1,0-2,.9-2,2v1c0,2.55,1.92,4.63,4.39,4.94.63,1.5,1.98,2.63,3.61,2.96v3.1h-3c-.55,0-1,.45-1,1h0c0,.55.45,1,1,1h8c.55,0,1-.45,1-1h0c0-.55-.45-1-1-1h-3v-3.1c1.63-.33,2.98-1.46,3.61-2.96,2.47-.31,4.39-2.39,4.39-4.94v-1c0-1.1-.9-2-2-2ZM5,8v-1h2v3.82c-1.16-.42-2-1.52-2-2.82ZM19,8c0,1.3-.84,2.4-2,2.82v-3.82h2v1Z" fill="currentColor" stroke-width="0"/>
  <g>
    <path d="M12.05,11.96c-.19-.06-.33-.18-.42-.35s-.1-.36-.04-.55c.11-.35.16-.67.15-.97s-.1-.61-.3-.93c-.36-.55-.56-1.07-.59-1.55s.04-1.03.23-1.64c.06-.19.18-.33.35-.42s.36-.1.55-.04.33.18.42.35.1.36.04.55c-.11.35-.16.67-.17.96s.1.61.31.94c.34.54.52,1.06.57,1.55s-.03,1.05-.21,1.64c-.06.19-.18.33-.35.42-.17.09-.36.1-.55.04Z" fill="currentColor" stroke-width="0"/>
    <path d="M8.89,11.96c-.19-.06-.33-.18-.42-.35s-.1-.36-.04-.55c.1-.34.15-.66.15-.97s-.09-.62-.3-.93c-.36-.53-.55-1.05-.58-1.55s.04-1.06.22-1.64c.06-.19.18-.33.35-.42s.36-.1.55-.04.33.18.42.35.1.36.04.55c-.1.34-.15.66-.16.97s.09.62.31.93c.35.53.54,1.05.57,1.56s-.04,1.06-.22,1.63c-.06.19-.18.33-.35.42s-.36.1-.55.04Z" fill="currentColor" stroke-width="0"/>
    <path d="M15.14,11.96c-.19-.06-.33-.18-.42-.35s-.1-.36-.04-.55c.1-.34.15-.66.15-.97s-.09-.62-.3-.93c-.36-.53-.55-1.05-.58-1.55s.04-1.06.22-1.64c.06-.19.18-.33.35-.42s.36-.1.55-.04.33.18.42.35.1.36.04.55c-.11.35-.16.67-.17.97s.1.61.31.93c.34.53.52,1.05.57,1.56s-.03,1.06-.21,1.63c-.06.19-.18.33-.35.42s-.36.1-.55.04Z" fill="currentColor" stroke-width="0"/>
  </g>
  <g opacity=".4">
    <path d="M12.05,11.96c-.19-.06-.33-.18-.42-.35s-.1-.36-.04-.55c.11-.35.16-.67.15-.97s-.1-.61-.3-.93c-.36-.55-.56-1.07-.59-1.55s.04-1.03.23-1.64c.06-.19.18-.33.35-.42s.36-.1.55-.04.33.18.42.35.1.36.04.55c-.11.35-.16.67-.17.96s.1.61.31.94c.34.54.52,1.06.57,1.55s-.03,1.05-.21,1.64c-.06.19-.18.33-.35.42-.17.09-.36.1-.55.04Z" fill="#000" stroke-width="0"/>
    <path d="M8.89,11.96c-.19-.06-.33-.18-.42-.35s-.1-.36-.04-.55c.1-.34.15-.66.15-.97s-.09-.62-.3-.93c-.36-.53-.55-1.05-.58-1.55s.04-1.06.22-1.64c.06-.19.18-.33.35-.42s.36-.1.55-.04.33.18.42.35.1.36.04.55c-.1.34-.15.66-.16.97s.09.62.31.93c.35.53.54,1.05.57,1.56s-.04,1.06-.22,1.63c-.06.19-.18.33-.35.42s-.36.1-.55.04Z" fill="#000" stroke-width="0"/>
    <path d="M15.14,11.96c-.19-.06-.33-.18-.42-.35s-.1-.36-.04-.55c.1-.34.15-.66.15-.97s-.09-.62-.3-.93c-.36-.53-.55-1.05-.58-1.55s.04-1.06.22-1.64c.06-.19.18-.33.35-.42s.36-.1.55-.04.33.18.42.35.1.36.04.55c-.11.35-.16.67-.17.97s.1.61.31.93c.34.53.52,1.05.57,1.56s-.03,1.06-.21,1.63c-.06.19-.18.33-.35.42s-.36.1-.55.04Z" fill="#000" stroke-width="0"/>
  </g>
  <g>
    <path d="M12.05,11.46c-.19-.06-.33-.18-.42-.35s-.1-.36-.04-.55c.11-.35.16-.67.15-.97s-.1-.61-.3-.93c-.36-.55-.56-1.07-.59-1.55s.04-1.03.23-1.64c.06-.19.18-.33.35-.42s.36-.1.55-.04.33.18.42.35.1.36.04.55c-.11.35-.16.67-.17.96s.1.61.31.94c.34.54.52,1.06.57,1.55s-.03,1.05-.21,1.64c-.06.19-.18.33-.35.42-.17.09-.36.1-.55.04Z" fill="currentColor" stroke-width="0"/>
    <path d="M8.89,11.46c-.19-.06-.33-.18-.42-.35s-.1-.36-.04-.55c.1-.34.15-.66.15-.97s-.09-.62-.3-.93c-.36-.53-.55-1.05-.58-1.55s.04-1.06.22-1.64c.06-.19.18-.33.35-.42s.36-.1.55-.04.33.18.42.35.1.36.04.55c-.1.34-.15.66-.16.97s.09.62.31.93c.35.53.54,1.05.57,1.56s-.04,1.06-.22,1.63c-.06.19-.18.33-.35.42s-.36.1-.55.04Z" fill="currentColor" stroke-width="0"/>
    <path d="M15.14,11.46c-.19-.06-.33-.18-.42-.35s-.1-.36-.04-.55c.1-.34.15-.66.15-.97s-.09-.62-.3-.93c-.36-.53-.55-1.05-.58-1.55s.04-1.06.22-1.64c.06-.19.18-.33.35-.42s.36-.1.55-.04.33.18.42.35.1.36.04.55c-.11.35-.16.67-.17.97s.1.61.31.93c.34.53.52,1.05.57,1.56s-.03,1.06-.21,1.63c-.06.19-.18.33-.35.42s-.36.1-.55.04Z" fill="currentColor" stroke-width="0"/>
  </g>
  <g opacity=".7">
    <path d="M12.05,11.46c-.19-.06-.33-.18-.42-.35s-.1-.36-.04-.55c.11-.35.16-.67.15-.97s-.1-.61-.3-.93c-.36-.55-.56-1.07-.59-1.55s.04-1.03.23-1.64c.06-.19.18-.33.35-.42s.36-.1.55-.04.33.18.42.35.1.36.04.55c-.11.35-.16.67-.17.96s.1.61.31.94c.34.54.52,1.06.57,1.55s-.03,1.05-.21,1.64c-.06.19-.18.33-.35.42-.17.09-.36.1-.55.04Z" fill="#fff" stroke-width="0"/>
    <path d="M8.89,11.46c-.19-.06-.33-.18-.42-.35s-.1-.36-.04-.55c.1-.34.15-.66.15-.97s-.09-.62-.3-.93c-.36-.53-.55-1.05-.58-1.55s.04-1.06.22-1.64c.06-.19.18-.33.35-.42s.36-.1.55-.04.33.18.42.35.1.36.04.55c-.1.34-.15.66-.16.97s.09.62.31.93c.35.53.54,1.05.57,1.56s-.04,1.06-.22,1.63c-.06.19-.18.33-.35.42s-.36.1-.55.04Z" fill="#fff" stroke-width="0"/>
    <path d="M15.14,11.46c-.19-.06-.33-.18-.42-.35s-.1-.36-.04-.55c.1-.34.15-.66.15-.97s-.09-.62-.3-.93c-.36-.53-.55-1.05-.58-1.55s.04-1.06.22-1.64c.06-.19.18-.33.35-.42s.36-.1.55-.04.33.18.42.35.1.36.04.55c-.11.35-.16.67-.17.97s.1.61.31.93c.34.53.52,1.05.57,1.56s-.03,1.06-.21,1.63c-.06.19-.18.33-.35.42s-.36.1-.55.04Z" fill="#fff" stroke-width="0"/>
  </g>
</svg>