<?xml version="1.0" encoding="UTF-8"?>
<svg id="t" data-name="Livello 20" xmlns="http://www.w3.org/2000/svg" viewBox="0 0 24 24">
  <path d="M19,5h-2v-1c0-.55-.45-1-1-1h-8c-.55,0-1,.45-1,1v1h-2c-1.1,0-2,.9-2,2v1c0,2.55,1.92,4.63,4.39,4.94.63,1.5,1.98,2.63,3.61,2.96v3.1h-3c-.55,0-1,.45-1,1h0c0,.55.45,1,1,1h8c.55,0,1-.45,1-1h0c0-.55-.45-1-1-1h-3v-3.1c1.63-.33,2.98-1.46,3.61-2.96,2.47-.31,4.39-2.39,4.39-4.94v-1c0-1.1-.9-2-2-2ZM5,8v-1h2v3.82c-1.16-.42-2-1.52-2-2.82ZM19,8c0,1.3-.84,2.4-2,2.82v-3.82h2v1Z" fill="currentColor" stroke-width="0"/>
  <path d="M17.9,8.36c-.02.12-.1.22-.21.27-.73.3-3.54,1.64-4.39,4.54-.02.07-.07.14-.13.18-.17.13-.57.36-1.2.38-.62-.01-1.02-.25-1.2-.38-.06-.05-.11-.11-.13-.18-.85-2.91-3.66-4.24-4.39-4.54-.11-.05-.19-.15-.21-.27-.06-.4-.06-.86-.05-1.25,0-.17.02-.34.03-.5.01-.17.15-.31.32-.32.69-.05,1.41-.09,2.14-.13,1.21-.05,2.37-.07,3.49-.07,1.12,0,2.28.02,3.49.07.73.03,1.44.08,2.14.13.17.01.31.15.32.32.01.16.02.33.03.5.01.39.01.85-.05,1.25Z" fill="currentColor" stroke-width="0"/>
  <path d="M17.9,8.36c-.02.12-.1.22-.21.27-.73.3-3.54,1.64-4.39,4.54-.02.07-.07.14-.13.18-.17.13-.57.36-1.2.38-.62-.01-1.02-.25-1.2-.38-.06-.05-.11-.11-.13-.18-.85-2.91-3.66-4.24-4.39-4.54-.11-.05-.19-.15-.21-.27-.06-.4-.06-.86-.05-1.25,0-.17.02-.34.03-.5.01-.17.15-.31.32-.32.69-.05,1.41-.09,2.14-.13,1.21-.05,2.37-.07,3.49-.07,1.12,0,2.28.02,3.49.07.73.03,1.44.08,2.14.13.17.01.31.15.32.32.01.16.02.33.03.5.01.39.01.85-.05,1.25Z" fill="rgba(0, 0, 0, .4)" stroke-width="0"/>
  <path d="M17.9,7.86c-.02.12-.1.22-.21.27-.73.3-3.54,1.64-4.39,4.54-.02.07-.07.14-.13.18-.17.13-.57.36-1.2.38-.62-.01-1.02-.25-1.2-.38-.06-.05-.11-.11-.13-.18-.85-2.91-3.66-4.24-4.39-4.54-.11-.05-.19-.15-.21-.27-.06-.4-.06-.86-.05-1.25,0-.17.02-.34.03-.5.01-.17.15-.31.32-.32.69-.05,1.41-.09,2.14-.13,1.21-.05,2.37-.07,3.49-.07,1.12,0,2.28.02,3.49.07.73.03,1.44.08,2.14.13.17.01.31.15.32.32.01.16.02.33.03.5.01.39.01.85-.05,1.25Z" fill="currentColor" stroke-width="0"/>
  <path d="M17.9,7.86c-.02.12-.1.22-.21.27-.73.3-3.54,1.64-4.39,4.54-.02.07-.07.14-.13.18-.17.13-.57.36-1.2.38-.62-.01-1.02-.25-1.2-.38-.06-.05-.11-.11-.13-.18-.85-2.91-3.66-4.24-4.39-4.54-.11-.05-.19-.15-.21-.27-.06-.4-.06-.86-.05-1.25,0-.17.02-.34.03-.5.01-.17.15-.31.32-.32.69-.05,1.41-.09,2.14-.13,1.21-.05,2.37-.07,3.49-.07,1.12,0,2.28.02,3.49.07.73.03,1.44.08,2.14.13.17.01.31.15.32.32.01.16.02.33.03.5.01.39.01.85-.05,1.25Z" fill="rgba(255, 255, 255, .7)" stroke-width="0"/>
</svg>