<?xml version="1.0" encoding="UTF-8"?>
<svg id="h" data-name="Livello 8" xmlns="http://www.w3.org/2000/svg" viewBox="0 0 24 24">
  <path d="M19,5h-2v-1c0-.55-.45-1-1-1h-8c-.55,0-1,.45-1,1v1h-2c-1.1,0-2,.9-2,2v1c0,2.55,1.92,4.63,4.39,4.94.63,1.5,1.98,2.63,3.61,2.96v3.1h-3c-.55,0-1,.45-1,1h0c0,.55.45,1,1,1h8c.55,0,1-.45,1-1h0c0-.55-.45-1-1-1h-3v-3.1c1.63-.33,2.98-1.46,3.61-2.96,2.47-.31,4.39-2.39,4.39-4.94v-1c0-1.1-.9-2-2-2ZM5,8v-1h2v3.82c-1.16-.42-2-1.52-2-2.82ZM19,8c0,1.3-.84,2.4-2,2.82v-3.82h2v1Z" fill="currentColor" stroke-width="0"/>
  <path d="M14.05,8.18c-.15-.15-.39-.15-.54,0l-2.23,2.23-.81-.81c-.15-.15-.39-.15-.54,0-.15.15-.15.39,0,.54l.99.99c.2.2.52.2.72,0l2.41-2.41c.15-.15.15-.39,0-.54ZM15.58,4.33h-.51v-.51c0-.28-.23-.51-.51-.51s-.51.23-.51.51v.51h-4.1v-.51c0-.28-.23-.51-.51-.51s-.51.23-.51.51v.51h-.51c-.57,0-1.02.46-1.02,1.02v7.17c0,.56.45,1.02,1.02,1.02h7.17c.56,0,1.02-.46,1.02-1.02v-7.17c0-.56-.46-1.02-1.02-1.02ZM15.07,12.52h-6.14c-.28,0-.51-.23-.51-.51v-5.12h7.17v5.12c0,.28-.23.51-.51.51Z" fill="currentColor" stroke-width="0"/>
  <path d="M14.05,8.18c-.15-.15-.39-.15-.54,0l-2.23,2.23-.81-.81c-.15-.15-.39-.15-.54,0-.15.15-.15.39,0,.54l.99.99c.2.2.52.2.72,0l2.41-2.41c.15-.15.15-.39,0-.54ZM15.58,4.33h-.51v-.51c0-.28-.23-.51-.51-.51s-.51.23-.51.51v.51h-4.1v-.51c0-.28-.23-.51-.51-.51s-.51.23-.51.51v.51h-.51c-.57,0-1.02.46-1.02,1.02v7.17c0,.56.45,1.02,1.02,1.02h7.17c.56,0,1.02-.46,1.02-1.02v-7.17c0-.56-.46-1.02-1.02-1.02ZM15.07,12.52h-6.14c-.28,0-.51-.23-.51-.51v-5.12h7.17v5.12c0,.28-.23.51-.51.51Z" fill="#000" opacity=".4" stroke-width="0"/>
  <path d="M14.05,7.68c-.15-.15-.39-.15-.54,0l-2.23,2.23-.81-.81c-.15-.15-.39-.15-.54,0-.15.15-.15.39,0,.54l.99.99c.2.2.52.2.72,0l2.41-2.41c.15-.15.15-.39,0-.54ZM15.58,3.83h-.51v-.51c0-.28-.23-.51-.51-.51s-.51.23-.51.51v.51h-4.1v-.51c0-.28-.23-.51-.51-.51s-.51.23-.51.51v.51h-.51c-.57,0-1.02.46-1.02,1.02v7.17c0,.56.45,1.02,1.02,1.02h7.17c.56,0,1.02-.46,1.02-1.02v-7.17c0-.56-.46-1.02-1.02-1.02ZM15.07,12.02h-6.14c-.28,0-.51-.23-.51-.51v-5.12h7.17v5.12c0,.28-.23.51-.51.51Z" fill="currentColor" stroke-width="0"/>
  <path d="M14.05,7.68c-.15-.15-.39-.15-.54,0l-2.23,2.23-.81-.81c-.15-.15-.39-.15-.54,0-.15.15-.15.39,0,.54l.99.99c.2.2.52.2.72,0l2.41-2.41c.15-.15.15-.39,0-.54ZM15.58,3.83h-.51v-.51c0-.28-.23-.51-.51-.51s-.51.23-.51.51v.51h-4.1v-.51c0-.28-.23-.51-.51-.51s-.51.23-.51.51v.51h-.51c-.57,0-1.02.46-1.02,1.02v7.17c0,.56.45,1.02,1.02,1.02h7.17c.56,0,1.02-.46,1.02-1.02v-7.17c0-.56-.46-1.02-1.02-1.02ZM15.07,12.02h-6.14c-.28,0-.51-.23-.51-.51v-5.12h7.17v5.12c0,.28-.23.51-.51.51Z" fill="#fff" opacity=".7" stroke-width="0"/>
</svg>